<svg width="190" height="60" viewBox="0 0 190 60" fill="none" xmlns="http://www.w3.org/2000/svg">
<g clip-path="url(#clip0_6_173)">
<path d="M175.5 0H11.28C10.2747 0.014783 9.27183 0.105037 8.28 0.27C7.28595 0.432095 6.32396 0.75107 5.43 1.215C4.52642 1.67082 3.70517 2.27409 3 3C2.27943 3.70633 1.68128 4.52752 1.23 5.43C0.774897 6.32767 0.456385 7.28826 0.284999 8.28C0.117605 9.27128 0.0323158 10.2747 0.0299988 11.28C0.0299988 11.745 0.0299988 12.21 0.0299988 12.66V47.34C0.0299988 47.805 0.0299988 48.255 0.0299988 48.72C0.0323158 49.7253 0.117605 50.7287 0.284999 51.72C0.454051 52.7171 0.77264 53.683 1.23 54.585C1.68546 55.4805 2.28323 56.2961 3 57C3.70633 57.7206 4.52752 58.3187 5.43 58.77C6.32679 59.2272 7.2877 59.5458 8.28 59.715C9.27183 59.88 10.2747 59.9702 11.28 59.985H178.5C179.505 59.9702 180.508 59.88 181.5 59.715C182.497 59.5459 183.463 59.2274 184.365 58.77C185.257 58.3159 186.068 57.7179 186.765 57C187.477 56.2922 188.075 55.4774 188.535 54.585C188.986 53.6815 189.299 52.7159 189.465 51.72C189.627 50.7276 189.723 49.7253 189.75 48.72V47.34C189.75 46.8 189.75 46.245 189.75 45.69V14.31C189.75 13.755 189.75 13.215 189.75 12.66V11.28C189.723 10.2747 189.627 9.27244 189.465 8.28C189.299 7.28895 188.985 6.32833 188.535 5.43C187.608 3.62546 186.14 2.15665 184.335 1.23C183.442 0.775478 182.487 0.456958 181.5 0.285C180.509 0.115009 179.506 0.0197413 178.5 0L175.5 0Z" fill="#A6A6A6"/>
<path d="M12.66 58.68H11.31C10.3717 58.6951 9.43369 58.6349 8.50501 58.5C7.62872 58.3305 6.7838 58.0269 6.00001 57.6C5.23096 57.2119 4.52743 56.7058 3.91501 56.1C3.30166 55.4883 2.79469 54.7786 2.41501 54C2.01334 53.2175 1.73506 52.3776 1.59001 51.51C1.44253 50.582 1.36232 49.6446 1.35001 48.705C1.35001 48.39 1.35001 47.325 1.35001 47.325V12.66C1.35001 12.66 1.35001 11.625 1.35001 11.325C1.36232 10.3854 1.44253 9.448 1.59001 8.52001C1.72731 7.643 2.0006 6.79277 2.40001 6.00001C2.78412 5.22407 3.29059 4.51501 3.90001 3.90001C4.51841 3.29464 5.22679 2.78864 6.00001 2.40001C6.78254 1.99834 7.62245 1.72006 8.49001 1.57501C9.42201 1.41922 10.3651 1.33896 11.31 1.33501H12.675H177.09H178.455C179.39 1.34804 180.322 1.42825 181.245 1.57501C182.117 1.72224 182.961 2.00038 183.75 2.40001C185.303 3.19044 186.568 4.45004 187.365 6.00001C187.768 6.77519 188.042 7.61128 188.175 8.47501C188.327 9.40768 188.413 10.3501 188.43 11.295C188.43 11.73 188.43 12.18 188.43 12.63V47.28C188.43 47.775 188.43 48.21 188.43 48.675C188.413 49.605 188.328 50.5325 188.175 51.45C188.042 52.3233 187.769 53.1693 187.365 53.955C186.981 54.7263 186.474 55.4304 185.865 56.04C185.249 56.6488 184.541 57.1552 183.765 57.54C182.976 57.9396 182.132 58.2178 181.26 58.365C180.333 58.52 179.395 58.6003 178.455 58.605H12.66V58.68Z" fill="black"/>
<path d="M37.155 30.45C37.1696 29.1975 37.502 27.9693 38.1212 26.8804C38.7404 25.7916 39.626 24.8779 40.695 24.225C40.0152 23.2561 39.1191 22.4588 38.0776 21.8964C37.0362 21.334 35.878 21.022 34.695 20.985C32.175 20.715 29.73 22.485 28.44 22.485C27.15 22.485 25.155 20.985 23.04 20.985C21.6612 21.0272 20.3169 21.4268 19.1389 22.1446C17.961 22.8625 16.9896 23.874 16.32 25.08C13.5 30.165 15.6 37.5 18.375 41.61C19.77 43.605 21.375 45.825 23.52 45.735C25.665 45.645 26.385 44.415 28.89 44.415C31.395 44.415 32.115 45.735 34.275 45.69C36.435 45.645 37.92 43.695 39.255 41.685C40.2569 40.2712 41.0266 38.7065 41.535 37.05C40.2373 36.5018 39.1298 35.5835 38.3508 34.4098C37.5719 33.236 37.156 31.8587 37.155 30.45Z" fill="white"/>
<path d="M33 18.315C34.2164 16.8539 34.8139 14.9754 34.665 13.08C32.8558 13.3053 31.1941 14.1923 30 15.57C29.3921 16.2534 28.9265 17.0511 28.6303 17.9164C28.3341 18.7818 28.2133 19.6974 28.275 20.61C29.183 20.599 30.0773 20.3877 30.8942 19.9909C31.711 19.5942 32.43 19.0219 33 18.315Z" fill="white"/>
<path d="M53.49 22.05V14.37H50.67V13.095H57.69V14.37H54.87V22.05H53.49Z" fill="white"/>
<path d="M64.14 20.235C63.9603 20.8525 63.5683 21.3867 63.0332 21.7435C62.498 22.1002 61.8542 22.2566 61.215 22.185C60.8086 22.2053 60.4023 22.1428 60.0208 22.0012C59.6394 21.8595 59.2907 21.6418 58.996 21.3612C58.7014 21.0805 58.4669 20.7429 58.3068 20.3688C58.1468 19.9947 58.0645 19.5919 58.065 19.185C58.065 19.02 58.065 18.84 58.065 18.675C57.9586 17.8556 58.1815 17.0275 58.6848 16.3723C59.1882 15.7171 59.9309 15.2883 60.75 15.18H61.185C63.06 15.18 64.185 16.47 64.185 18.585V19.05H59.46V19.125C59.4348 19.5865 59.5895 20.0397 59.8917 20.3894C60.1938 20.7391 60.6198 20.958 61.08 21H61.26C61.5776 21.0386 61.8995 20.9822 62.1852 20.8381C62.4708 20.6939 62.7074 20.4684 62.865 20.19L64.14 20.235ZM59.46 18H62.865C62.8814 17.7871 62.8555 17.5731 62.7889 17.3703C62.7222 17.1675 62.6162 16.9798 62.4768 16.8181C62.3374 16.6564 62.1674 16.5239 61.9766 16.4281C61.7858 16.3323 61.578 16.2752 61.365 16.26H61.2C60.971 16.258 60.7438 16.3016 60.5318 16.3884C60.3198 16.4751 60.1272 16.6032 59.9652 16.7652C59.8032 16.9271 59.6751 17.1198 59.5884 17.3318C59.5017 17.5438 59.458 17.7709 59.46 18ZM60.42 14.13L61.92 11.985H63.42L61.785 14.175L60.42 14.13Z" fill="white"/>
<path d="M66.075 12.66H67.41V22.05H66.075V12.66Z" fill="white"/>
<path d="M75.315 20.235C75.1307 20.865 74.7268 21.4082 74.1764 21.766C73.626 22.1237 72.9656 22.2724 72.315 22.185C71.9086 22.2053 71.5023 22.1428 71.1208 22.0012C70.7394 21.8595 70.3907 21.6418 70.096 21.3612C69.8014 21.0805 69.5669 20.7429 69.4068 20.3688C69.2468 19.9947 69.1645 19.5919 69.165 19.185C69.1501 19.0153 69.1501 18.8447 69.165 18.675C69.113 18.2587 69.1459 17.8363 69.2617 17.4331C69.3775 17.0299 69.5738 16.6544 69.8388 16.3291C70.1037 16.0039 70.4318 15.7357 70.8033 15.5408C71.1747 15.3459 71.5818 15.2282 72 15.195H72.435C74.325 15.195 75.435 16.485 75.435 18.6V19.065H70.62V19.14C70.6027 19.6004 70.7626 20.0498 71.0668 20.3959C71.371 20.7419 71.7962 20.9581 72.255 21H72.42C72.7378 21.0406 73.0605 20.9852 73.3466 20.8408C73.6326 20.6965 73.8689 20.4698 74.025 20.19L75.315 20.235ZM70.62 18H74.04C74.0651 17.5719 73.9226 17.1509 73.6426 16.8261C73.3626 16.5013 72.9671 16.2982 72.54 16.26H72.39C72.1584 16.2539 71.928 16.2946 71.7125 16.3795C71.497 16.4644 71.3008 16.5919 71.1356 16.7543C70.9705 16.9167 70.8397 17.1106 70.7511 17.3247C70.6625 17.5387 70.6179 17.7684 70.62 18ZM71.58 14.13L73.08 11.985H74.58L72.96 14.175L71.58 14.13Z" fill="white"/>
<path d="M81.6 17.505C81.5153 17.1562 81.3082 16.8493 81.0164 16.6401C80.7247 16.4309 80.3676 16.3333 80.01 16.365C78.9 16.365 78.21 17.22 78.21 18.66C78.21 20.1 78.9 21 80.01 21C80.3635 21.0331 80.7173 20.9397 81.0085 20.7365C81.2996 20.5332 81.5092 20.2333 81.6 19.89H82.905C82.8185 20.5763 82.4675 21.2017 81.9268 21.6331C81.3861 22.0646 80.6984 22.268 80.01 22.2C79.1889 22.2243 78.3917 21.9222 77.7929 21.3599C77.194 20.7976 76.8424 20.021 76.815 19.2C76.815 19.02 76.815 18.84 76.815 18.675C76.7586 18.2306 76.799 17.7793 76.9334 17.3521C77.0678 16.9248 77.2931 16.5316 77.5937 16.1996C77.8944 15.8676 78.2633 15.6046 78.6752 15.4286C79.0871 15.2526 79.5322 15.1678 79.98 15.18C80.6722 15.1164 81.3619 15.3254 81.9025 15.7623C82.4431 16.1993 82.792 16.8299 82.875 17.52L81.6 17.505Z" fill="white"/>
<path d="M84.675 12.66H85.995V16.38H86.1C86.2757 15.9915 86.5679 15.6673 86.9361 15.4523C87.3043 15.2373 87.7303 15.1421 88.155 15.18C88.4471 15.1618 88.7399 15.2019 89.0163 15.298C89.2927 15.3941 89.5472 15.5442 89.765 15.7397C89.9828 15.9351 90.1596 16.172 90.2849 16.4365C90.4102 16.7009 90.4816 16.9877 90.495 17.28C90.51 17.4146 90.51 17.5504 90.495 17.685V22.05H89.16V18C89.16 16.92 88.665 16.38 87.66 16.38C87.4473 16.3521 87.2311 16.3702 87.026 16.4329C86.8208 16.4957 86.6315 16.6018 86.4709 16.744C86.3102 16.8861 86.1819 17.0611 86.0947 17.2571C86.0074 17.4531 85.9632 17.6655 85.965 17.88C85.9499 17.9694 85.9499 18.0606 85.965 18.15V22.05H84.63L84.675 12.66Z" fill="white"/>
<path d="M92.16 20.145C92.16 18.93 93.06 18.225 94.665 18.12L96.495 18V17.415C96.495 16.71 96.03 16.305 95.115 16.305C94.2 16.305 93.855 16.575 93.705 17.055H92.415C92.55 15.9 93.645 15.15 95.175 15.15C96.705 15.15 97.83 15.99 97.83 17.415V22.05H96.54V21.105H96.435C96.2212 21.4452 95.9214 21.7229 95.5658 21.9099C95.2102 22.0969 94.8114 22.1866 94.41 22.17C94.143 22.1969 93.8734 22.1709 93.6165 22.0935C93.3596 22.0161 93.1204 21.8887 92.9128 21.7187C92.7052 21.5487 92.5332 21.3394 92.4066 21.1028C92.28 20.8663 92.2013 20.607 92.175 20.34C92.1626 20.2758 92.1575 20.2104 92.16 20.145ZM96.495 19.5V18.945L94.845 19.05C93.915 19.05 93.495 19.425 93.495 20.025C93.495 20.625 94.02 20.985 94.755 20.985C94.9628 21.0057 95.1727 20.9853 95.3726 20.9249C95.5726 20.8645 95.7586 20.7653 95.9202 20.633C96.0818 20.5006 96.2157 20.3378 96.3144 20.1537C96.413 19.9696 96.4744 19.7678 96.495 19.56V19.5Z" fill="white"/>
<path d="M99.915 15.3H101.205V16.335H101.295C101.441 15.9756 101.697 15.6711 102.025 15.464C102.353 15.2569 102.738 15.1576 103.125 15.18C103.319 15.1578 103.516 15.1578 103.71 15.18V16.5C103.468 16.4479 103.222 16.4177 102.975 16.41C102.763 16.3916 102.548 16.4161 102.346 16.4821C102.143 16.5481 101.955 16.6543 101.794 16.7942C101.634 16.9342 101.502 17.1051 101.409 17.2968C101.315 17.4885 101.261 17.697 101.25 17.91V22.05H99.915V15.3Z" fill="white"/>
<path d="M105 22.725H106.365C106.485 23.22 107.04 23.535 107.865 23.535C108.69 23.535 109.635 23.01 109.635 22.11V20.82H109.5C109.288 21.1811 108.983 21.4779 108.615 21.6787C108.248 21.8795 107.833 21.9767 107.415 21.96C105.69 21.96 104.625 20.625 104.625 18.6C104.625 16.575 105.705 15.18 107.43 15.18C107.861 15.1659 108.287 15.2704 108.663 15.482C109.038 15.6936 109.349 16.0042 109.56 16.38H109.665V15.3H111V22.11C111 23.61 109.785 24.63 107.88 24.63C105.975 24.63 105.09 23.88 105 22.725ZM109.74 18.585C109.74 17.25 109.035 16.38 107.91 16.38C106.785 16.38 106.11 17.25 106.11 18.585C106.11 19.92 106.755 20.805 107.91 20.805C109.065 20.805 109.74 19.95 109.74 18.585Z" fill="white"/>
<path d="M118.815 20.235C118.633 20.8509 118.24 21.3834 117.706 21.7397C117.171 22.096 116.529 22.2536 115.89 22.185C115.484 22.2054 115.077 22.1428 114.696 22.0012C114.314 21.8596 113.966 21.6418 113.671 21.3612C113.376 21.0805 113.142 20.7429 112.982 20.3688C112.822 19.9947 112.74 19.5919 112.74 19.185C112.74 19.02 112.74 18.84 112.74 18.675C112.69 18.2648 112.722 17.8488 112.834 17.451C112.946 17.0533 113.136 16.6818 113.392 16.358C113.649 16.0342 113.968 15.7647 114.33 15.5651C114.691 15.3654 115.089 15.2396 115.5 15.195H115.95C117.825 15.195 118.95 16.485 118.95 18.6V19.065H114.135V19.14C114.114 19.5989 114.27 20.0484 114.572 20.3948C114.874 20.7413 115.298 20.958 115.755 21H115.935C116.252 21.0366 116.574 20.9794 116.859 20.8354C117.144 20.6915 117.381 20.4671 117.54 20.19L118.815 20.235ZM114.135 18H117.54C117.556 17.7871 117.53 17.5731 117.464 17.3703C117.397 17.1675 117.291 16.9798 117.152 16.8181C117.012 16.6564 116.842 16.5239 116.652 16.4281C116.461 16.3323 116.253 16.2752 116.04 16.26H115.875C115.645 16.2559 115.417 16.2982 115.204 16.3842C114.991 16.4702 114.798 16.5982 114.636 16.7606C114.473 16.923 114.345 17.1164 114.259 17.3294C114.173 17.5423 114.131 17.7704 114.135 18Z" fill="white"/>
<path d="M120.69 15.3H121.98V16.335H122.07C122.216 15.9756 122.472 15.6711 122.8 15.464C123.128 15.2569 123.513 15.1576 123.9 15.18C124.094 15.1578 124.291 15.1578 124.485 15.18V16.5C124.24 16.478 123.995 16.478 123.75 16.5C123.538 16.4816 123.323 16.5061 123.121 16.5721C122.918 16.6381 122.73 16.7443 122.569 16.8842C122.409 17.0242 122.277 17.1951 122.184 17.3868C122.09 17.5785 122.036 17.787 122.025 18V22.05H120.69V15.3Z" fill="white"/>
<path d="M129.3 18.675C129.3 16.545 130.395 15.18 132.09 15.18C132.513 15.1643 132.933 15.2669 133.301 15.4762C133.669 15.6855 133.972 15.9933 134.175 16.365H134.265V12.66H135.6V22.05H134.325V21H134.22C134.006 21.3719 133.694 21.6786 133.319 21.8873C132.944 22.096 132.519 22.1989 132.09 22.185C130.38 22.17 129.3 20.805 129.3 18.675ZM130.665 18.675C130.665 20.175 131.34 20.97 132.48 20.97C133.62 20.97 134.295 20.1 134.295 18.675C134.295 17.25 133.59 16.38 132.48 16.38C131.37 16.38 130.665 17.25 130.665 18.675Z" fill="white"/>
<path d="M137.4 20.145C137.4 18.93 138.315 18.225 139.92 18.12L141.75 18V17.415C141.75 16.71 141.27 16.305 140.355 16.305C139.44 16.305 139.095 16.575 138.96 17.055H137.67C137.805 15.9 138.885 15.15 140.43 15.15C141.975 15.15 143.07 15.99 143.07 17.415V22.05H141.795V21.105H141.69C141.473 21.4453 141.17 21.7227 140.812 21.9096C140.454 22.0965 140.053 22.1863 139.65 22.17C139.112 22.2204 138.575 22.0565 138.157 21.7139C137.738 21.3714 137.472 20.8777 137.415 20.34C137.403 20.2758 137.398 20.2104 137.4 20.145ZM141.75 19.5V18.945L140.1 19.05C139.17 19.05 138.75 19.425 138.75 20.025C138.75 20.625 139.275 20.985 139.995 20.985C140.203 21.0057 140.413 20.9853 140.613 20.9249C140.813 20.8645 140.999 20.7653 141.16 20.633C141.322 20.5006 141.456 20.3378 141.554 20.1537C141.653 19.9696 141.714 19.7678 141.735 19.56L141.75 19.5Z" fill="white"/>
<path d="M145.155 15.3H146.445V16.365H146.535C146.711 15.983 146.999 15.6635 147.36 15.4492C147.722 15.2348 148.141 15.1357 148.56 15.165C149.14 15.1236 149.713 15.3132 150.155 15.6925C150.596 16.0718 150.869 16.6101 150.915 17.19C150.93 17.3547 150.93 17.5203 150.915 17.685V22.05H149.58V18C149.58 16.92 149.1 16.38 148.08 16.38C147.873 16.3634 147.665 16.3899 147.469 16.4578C147.273 16.5257 147.093 16.6336 146.941 16.7746C146.789 16.9155 146.667 17.0866 146.584 17.2768C146.502 17.4671 146.459 17.6725 146.46 17.88C146.453 17.9598 146.453 18.0402 146.46 18.12V22.05H145.125L145.155 15.3Z" fill="white"/>
<path d="M155.43 15.165C156.93 15.165 157.935 15.87 158.07 17.07H156.795C156.66 16.575 156.18 16.26 155.43 16.26C154.68 16.26 154.11 16.605 154.11 17.13C154.11 17.655 154.455 17.79 155.19 17.955L156.315 18.225C157.59 18.51 158.205 19.065 158.205 20.055C158.205 21.33 157.02 22.185 155.4 22.185C153.78 22.185 152.745 21.45 152.625 20.265H153.96C154.076 20.5558 154.288 20.7979 154.561 20.9508C154.834 21.1037 155.152 21.1582 155.46 21.105C156.3 21.105 156.885 20.73 156.885 20.19C156.885 19.65 156.57 19.53 155.895 19.365L154.71 19.095C153.435 18.795 152.835 18.21 152.835 17.205C152.835 16.2 153.9 15.165 155.43 15.165Z" fill="white"/>
<path d="M52.8 27.105H55.59V45.735H52.8V27.105Z" fill="white"/>
<path d="M58.95 33.915L60.45 27.105H63.165L61.32 33.915H58.95Z" fill="white"/>
<path d="M73.725 40.695H66.615L64.92 45.735H61.92L68.64 27.105H71.775L78.495 45.735H75.495L73.725 40.695ZM67.35 38.37H72.99L70.215 30.195H70.125L67.35 38.37Z" fill="white"/>
<path d="M93 39C93 43.215 90.75 45.93 87.33 45.93C86.4625 45.9711 85.6012 45.7644 84.8469 45.334C84.0925 44.9037 83.4762 44.2676 83.07 43.5H82.995V50.22H80.205V32.22H82.905V34.485C83.3385 33.7297 83.9699 33.1071 84.7312 32.6841C85.4924 32.2612 86.3547 32.0541 87.225 32.085C90.735 32.01 93 34.725 93 39ZM90.135 39C90.135 36.255 88.725 34.5 86.55 34.5C84.375 34.5 82.995 36.345 82.995 39C82.995 41.655 84.495 43.5 86.55 43.5C88.605 43.5 90.135 41.715 90.135 39Z" fill="white"/>
<path d="M108 39C108 43.215 105.735 45.93 102.33 45.93C101.453 45.979 100.581 45.7763 99.8152 45.3458C99.0498 44.9152 98.4234 44.2748 98.01 43.5V50.22H95.16V32.22H97.86V34.485C98.2935 33.7297 98.9249 33.1071 99.6862 32.6841C100.447 32.2612 101.31 32.0541 102.18 32.085C105.675 32.01 108 34.725 108 39ZM105.135 39C105.135 36.255 103.635 34.5 101.535 34.5C99.435 34.5 97.98 36.345 97.98 39C97.98 41.655 99.405 43.5 101.535 43.5C103.665 43.5 105.09 41.715 105.09 39H105.135Z" fill="white"/>
<path d="M117.825 40.5C118.035 42.345 119.835 43.5 122.325 43.5C124.815 43.5 126.375 42.285 126.375 40.62C126.375 38.955 125.355 38.31 122.94 37.71L120.525 37.125C117 36.405 115.5 34.8 115.5 32.205C115.5 28.995 118.305 26.79 122.28 26.79C126.255 26.79 128.91 28.995 129 32.205H126.15C125.985 30.345 124.455 29.205 122.205 29.205C119.955 29.205 118.5 30.36 118.5 32.025C118.5 33.33 119.475 34.11 121.875 34.71L123.93 35.205C127.755 36.105 129.345 37.65 129.345 40.365C129.345 43.86 126.57 46.035 122.145 46.035C118.02 46.035 115.23 43.905 115.05 40.545L117.825 40.5Z" fill="white"/>
<path d="M135.285 28.935V32.145H137.865V34.35H135.285V41.85C135.285 43.02 135.795 43.56 136.935 43.56C137.24 43.5755 137.545 43.5755 137.85 43.56V45.75C137.355 45.8376 136.853 45.8828 136.35 45.885C133.605 45.885 132.525 44.85 132.525 42.21V34.35H130.5V32.145H132.465V28.935H135.285Z" fill="white"/>
<path d="M139.365 39C139.365 34.725 141.885 32.04 145.8 32.04C149.715 32.04 152.25 34.725 152.25 39C152.25 43.275 149.76 45.96 145.8 45.96C141.84 45.96 139.365 43.23 139.365 39ZM149.4 39C149.4 36 148.065 34.335 145.8 34.335C143.535 34.335 142.2 36 142.2 39C142.2 42 143.55 43.665 145.8 43.665C148.05 43.665 149.4 41.94 149.4 39Z" fill="white"/>
<path d="M154.5 32.145H157.155V34.5C157.33 33.7576 157.762 33.1008 158.374 32.6454C158.986 32.1899 159.739 31.9649 160.5 32.01C160.823 32.007 161.145 32.0423 161.46 32.115V34.71C161.052 34.587 160.626 34.5313 160.2 34.545C159.832 34.531 159.464 34.5897 159.118 34.7178C158.773 34.8459 158.456 35.041 158.185 35.2917C157.915 35.5425 157.697 35.8441 157.543 36.1792C157.39 36.5144 157.304 36.8766 157.29 37.245C157.275 37.3896 157.275 37.5354 157.29 37.68V45.735H154.5V32.145Z" fill="white"/>
<path d="M174.345 41.745C173.97 44.205 171.57 45.9 168.495 45.9C164.535 45.9 162.09 43.245 162.09 39C162.09 34.755 164.55 31.98 168.375 31.98C172.2 31.98 174.495 34.56 174.495 38.685V39.63H164.91V39.81C164.869 40.2721 164.919 40.7377 165.058 41.1803C165.198 41.6228 165.423 42.0335 165.721 42.3889C166.019 42.7442 166.385 43.0372 166.796 43.2511C167.208 43.4649 167.658 43.5954 168.12 43.635H168.555C169.213 43.6964 169.873 43.5443 170.438 43.2012C171.002 42.8581 171.441 42.3422 171.69 41.73L174.345 41.745ZM164.91 37.68H171.705C171.755 36.8286 171.468 35.9916 170.907 35.3493C170.346 34.7069 169.555 34.3104 168.705 34.245H168.45C167.999 34.241 167.551 34.326 167.133 34.495C166.715 34.6639 166.334 34.9136 166.012 35.2298C165.691 35.546 165.434 35.9225 165.258 36.3377C165.082 36.753 164.989 37.1989 164.985 37.65L164.91 37.68Z" fill="white"/>
</g>
<defs>
<clipPath id="clip0_6_173">
<rect width="189.765" height="60" fill="white"/>
</clipPath>
</defs>
</svg>
