<svg xmlns="http://www.w3.org/2000/svg" fill="none" viewBox="0 0 118 41">
  <path fill="#FF5A32" fill-rule="evenodd" d="M65.8518 10.7702c-.6785-1.40386-1.5056-2.73235-2.468-3.94085-2.0332-2.55188-4.7068-4.65607-7.8062-5.67523C51.5264-.178031 47.0007-.0379612 42.8442.628609 38.936 1.25501 34.9204 2.40498 31.7234 4.8249c-4.1004 3.10223-5.7866 9.1299-5.5445 14.0547.1243 2.5442.7129 5.0679 1.7156 7.4093 1.1067 2.5827 3.9695 5.009 4.0623 7.929.0808 2.5693-2.3892 4.2628-4.5144 5.1128-.751.3004-.5801 1.4039.2253 1.478 2.0562.1894 4.1507-.094 6.0681-.8698 1.2513-.5062 2.3943-1.207 3.4168-2.0787 1.022-.8713 2.0598-1.0182 3.418-1.0659 6.321-.2225 13.3066.3138 19.1152-2.6256.3118-.1577.6186-.3249.9197-.5021 8.1499-4.7992 9.0447-15.0322 5.2463-22.8964Z" clip-rule="evenodd"/>
  <path stroke="#fff" stroke-linecap="round" stroke-linejoin="round" stroke-width="2" d="M38.5942 13.8918c.042-.9114-.1709-1.8573-.728-2.5801-.5562-.7227-1.4858-1.1842-2.3882-1.0511-.4492.0662-.8696.2705-1.2407.5325-1.4888 1.0525-1.7173 2.8047-1.1563 4.442.8936 2.6063 3.5484 3.9521 4.9332 6.2326.3237.5324.6162 1.0899.7836 1.6899.292 1.0509.1665 2.231-.4252 3.1479-2.3204 3.5968-6.9761.1398-8.3257-2.5184m29.2527-12.7402c-.4837 3.4962-1.2559 7.0416-3.1385 10.0273-1.8821 2.9857-5.063 5.3452-8.592 5.4335-1.4065.0353-2.9104-.3424-3.8428-1.3972-.3855-.4359-.6538-.9663-.834-1.5195-.604-1.8575-.206-3.9352.719-5.6559.4717-.8793 1.1011-1.7092 1.9688-2.2034.8662-.4942 2.0046-.5953 2.8489-.0636.7419.4665 1.1477 1.3342 1.2912 2.1981.3167 1.8999-.4971 3.8852-1.873 5.2327-1.3765 1.3477-3.253 2.1035-5.158 2.3879-1.9045.2845-1.5432.3819-3.449.1047"/>
  <path stroke="#fff" stroke-linecap="round" stroke-linejoin="round" stroke-width="2" d="M52.7539 13.4775c1.4807 2.4802 2.9778 4.9814 4.95 7.0923 1.9721 2.1109 4.4843 3.8291 7.3261 4.3467"/>
  <path fill="#000" fill-rule="evenodd" d="M73.2524 12.3143c.7615.4784 1.3509 1.1473 1.7676 2.0065.416.8597.6245 1.8384.6245 2.9369 0 1.6477-.4433 2.9678-1.3291 3.96-.886.9924-2.0464 1.4883-3.4812 1.4883h-1.9939c-.0886 0-.1325.0443-.1325.133v7.0695c0 .0887-.0313.1639-.0928.2257-.0628.0624-.1377.0931-.2263.0931h-3.1092c-.0891 0-.164-.0307-.226-.0931-.0625-.0618-.0926-.137-.0926-.2257v-17.993c0-.0883.0301-.1635.0926-.2258.062-.062.1369-.093.226-.093h5.3684c.9744 0 1.8423.2392 2.6045.7176Zm-1.8735 6.8171c.3452-.4341.5185-1.032.5185-1.794 0-.7795-.1733-1.3908-.5185-1.8338-.3457-.4427-.8018-.6645-1.3689-.6645h-1.1697c-.0886 0-.1326.0445-.1326.1328v4.6776c0 .089.044.1329.1326.1329H70.01c.5671 0 1.0232-.2167 1.3689-.651Zm12.2656 10.8294-2.0464-7.3352c-.0351-.0708-.0796-.1064-.1328-.1064h-.9033c-.0889 0-.1328.0445-.1328.1329v7.2557c0 .0888-.0317.1639-.0933.2257-.062.0624-.1372.0931-.226.0931H77.001c-.0894 0-.1641-.0307-.2266-.0931-.062-.0618-.0928-.1369-.0928-.2257V11.9415c0-.0886.0308-.1637.0928-.226.0625-.0618.1372-.0929.2266-.0929h5.3681c.9742 0 1.8423.2351 2.605.7042.7608.4697 1.3506 1.1296 1.7676 1.98.416.8505.624 1.8251.624 2.9235 0 1.0456-.1997 1.9666-.5976 2.7641-.399.7973-.9532 1.4178-1.6617 1.8604-.0356.0178-.062.0399-.0796.0665-.0175.0264-.0175.0577 0 .093l2.4454 7.8402.0263.1063c0 .1774-.0976.2658-.292.2658h-3.1894c-.1953 0-.3189-.0884-.3726-.2658Zm-3.2153-14.9895v4.5446c0 .0889.0439.1329.1328.1329h1.1958c.5488 0 .9966-.2167 1.3418-.6511.3457-.4339.519-1.0142.519-1.7407 0-.7443-.1733-1.3331-.519-1.7674-.3452-.434-.793-.6512-1.3418-.6512H80.562c-.0889 0-.1328.0445-.1328.1329Zm8.1975 15.1622c-.0625-.0618-.0935-.1369-.0935-.2257V11.9415c0-.0886.031-.1637.0935-.226.0618-.0618.137-.0929.2256-.0929h3.1099c.0883 0 .1633.0311.2258.0929.062.0623.0933.1374.0933.226v17.9663c0 .0888-.0313.1639-.0933.2257-.0625.0624-.1375.0931-.2258.0931h-3.1099c-.0886 0-.1638-.0307-.2256-.0931Zm14.2593-18.5109h3.083c.088 0 .164.0311.226.0929.061.0623.093.1374.093.226v17.9663c0 .0888-.032.1639-.093.2257-.062.0624-.138.0931-.226.0931h-3.11c-.089 0-.163-.0307-.226-.0931-.062-.0618-.093-.1369-.093-.2257V17.9745c0-.0706-.018-.1063-.053-.1063-.036 0-.071.0266-.106.0797l-2.074 3.6677c-.088.142-.159.2126-.212.2126-.053 0-.1245-.0706-.2124-.2126l-2.0735-3.6677c-.0357-.0531-.0706-.0797-.1055-.0797-.0369 0-.0535.0357-.0535.1063v11.9333c0 .0888-.0312.1639-.0932.2257-.062.0624-.1377.0931-.2261.0931h-3.1091c-.0891 0-.1643-.0307-.2263-.0931-.0618-.0618-.0931-.1369-.0931-.2257V11.9415c0-.0886.0313-.1637.0931-.226.062-.0618.1372-.0929.2263-.0929h3.0559c.1777 0 .3101.0709.3989.2126l2.3655 4.2258c.053.071.106.071.16 0l2.285-4.2258c.071-.1417.204-.2126.399-.2126Zm14.657 3.1228c-.062.0624-.136.0931-.225.0931h-5.555c-.089 0-.133.0444-.133.1328v4.1993c0 .0888.044.1328.133.1328h3.189c.089 0 .164.031.226.0929.062.0624.093.1377.093.226v2.578c0 .0889-.031.1641-.093.226-.062.0622-.137.0929-.226.0929h-3.189c-.089 0-.133.0445-.133.1329v4.2258c0 .0888.044.1328.133.1328h5.555c.089 0 .163.0312.225.0931.062.0623.093.1374.093.2259v2.5781c0 .0888-.031.1639-.093.2257-.062.0624-.136.0931-.225.0931h-9.117c-.088 0-.163-.0307-.225-.0931-.062-.0618-.093-.1369-.093-.2257V11.9415c0-.0886.031-.1637.093-.226.062-.0618.137-.0929.225-.0929h9.117c.089 0 .163.0311.225.0929.062.0623.093.1374.093.226v2.5779c0 .0889-.031.1641-.093.226ZM1.46191 29.0046C.4873 28.0479 0 26.7722 0 25.1776v-8.5047c0-1.5946.4873-2.8704 1.46191-3.8272.97412-.9567 2.27637-1.4351 3.90723-1.4351 1.62939 0 2.93652.4784 3.91992 1.4351.98344.9568 1.47514 2.2326 1.47514 3.8272v8.5047c0 1.5946-.4917 2.8703-1.47514 3.827-.9834.9568-2.29053 1.4353-3.91992 1.4353-1.63086 0-2.93311-.4785-3.90723-1.4353Zm5.10303-2.2987c.30127-.3456.45166-.8016.45166-1.3688v-8.8237c0-.5669-.15039-1.0232-.45166-1.3686-.30176-.3456-.7002-.5183-1.1958-.5183-.49609 0-.89014.1727-1.18311.5183-.29199.3454-.43896.8017-.43896 1.3686v8.8237c0 .5672.14697 1.0232.43896 1.3688.29297.3454.68701.5181 1.18311.5181.49561 0 .89404-.1727 1.1958-.5181ZM19.8681 11.7155c.062-.0618.1372-.0929.2256-.0929h3.083c.0884 0 .1636.0311.2256.0929.0625.0623.0938.1374.0938.226v17.9663c0 .0888-.0313.1639-.0938.2257-.062.0624-.1372.0931-.2256.0931h-3.5078c-.1777 0-.2929-.0884-.3462-.2658l-3.2949-10.2853c-.0185-.0532-.0488-.0752-.0932-.0664-.045.009-.0665.0397-.0665.0929l.0269 10.2058c0 .0888-.0312.1639-.0933.2257-.0629.0624-.1377.0931-.226.0931h-3.0825c-.0894 0-.1641-.0307-.2261-.0931-.0625-.0618-.0933-.1369-.0933-.2257V11.9415c0-.0886.0308-.1637.0933-.226.062-.0618.1367-.0929.2261-.0929h3.4814c.1768 0 .292.0888.3452.2658l3.3223 10.2854c.0176.0531.0483.0755.0932.0663.0435-.0087.0665-.0398.0665-.0931l-.0264-10.2055c0-.0886.0298-.1637.0928-.226h-.0001Z" clip-rule="evenodd"/>
</svg>