<svg width="287" height="145" viewBox="0 0 287 145" fill="none" xmlns="http://www.w3.org/2000/svg">
<path fill-rule="evenodd" clip-rule="evenodd" d="M191.118 129.132C193.152 131.514 192.805 135.04 190.342 137.007C181.397 144.153 171.989 145.78 163.898 144.693C156.035 143.638 149.567 140.057 145.838 136.908C143.432 134.876 143.185 131.342 145.286 129.015C147.387 126.688 151.041 126.449 153.447 128.481C155.716 130.397 160.147 132.895 165.489 133.612C170.602 134.299 176.703 133.392 182.975 128.382C185.438 126.414 189.084 126.75 191.118 129.132Z" fill="#E85439"/>
<path d="M27.3531 52.7824C26.0705 53.7304 24.4812 54.4553 22.5852 54.9572C20.7449 55.4034 18.821 55.6264 16.8134 55.6264C11.4041 55.6264 7.24956 54.2602 4.34974 51.5276C1.44991 48.7951 0 44.78 0 39.4822V0H13.0492V10.958H24.1745V20.9958H13.0492V39.3149C13.0492 41.211 13.5232 42.6887 14.4712 43.7483C15.4193 44.7521 16.7855 45.254 18.57 45.254C20.5776 45.254 22.3621 44.6963 23.9235 43.581L27.3531 52.7824Z" fill="black"/>
<path d="M80.061 9.9542V54.9572H67.681V49.6037C65.9523 51.5555 63.8889 53.0612 61.491 54.1208C59.0931 55.1245 56.4999 55.6264 53.7117 55.6264C47.8005 55.6264 43.1161 53.9256 39.6587 50.5239C36.2012 47.1221 34.4724 42.0753 34.4724 35.3834V9.9542H47.5216V33.4595C47.5216 40.7091 50.5609 44.3338 56.6394 44.3338C59.7622 44.3338 62.2717 43.3301 64.1677 41.3225C66.0638 39.2592 67.0118 36.2199 67.0118 32.2048V9.9542H80.061Z" fill="black"/>
<path d="M203.042 45.1703C205.385 45.1703 207.448 44.8357 209.232 44.1665C211.073 43.4416 212.773 42.3263 214.335 40.8206L221.278 48.349C217.04 53.2006 210.85 55.6264 202.708 55.6264C197.633 55.6264 193.144 54.6505 189.24 52.6987C185.337 50.6912 182.325 47.9307 180.206 44.4175C178.087 40.9042 177.028 36.917 177.028 32.4557C177.028 28.0502 178.059 24.0908 180.123 20.5776C182.242 17.0086 185.114 14.2482 188.738 12.2964C192.419 10.2888 196.546 9.28501 201.118 9.28501C205.412 9.28501 209.316 10.2051 212.829 12.0454C216.342 13.8299 219.131 16.4509 221.194 19.9084C223.313 23.3101 224.373 27.3531 224.373 32.0375L191.081 38.4784C192.029 40.7091 193.506 42.382 195.514 43.4974C197.577 44.6127 200.087 45.1703 203.042 45.1703ZM201.118 19.1556C197.828 19.1556 195.151 20.2151 193.088 22.3342C191.025 24.4533 189.937 27.381 189.826 31.1173L211.742 26.8513C211.128 24.5091 209.874 22.6409 207.978 21.2468C206.082 19.8526 203.795 19.1556 201.118 19.1556Z" fill="black"/>
<path d="M149.784 9.28467C155.416 9.28467 159.878 10.9576 163.168 14.3036C166.514 17.5938 168.187 22.5569 168.187 29.1931V54.9569H155.138V31.2006C155.138 27.6316 154.385 24.9828 152.879 23.254C151.429 21.4695 149.338 20.5773 146.605 20.5773C143.538 20.5773 141.113 21.581 139.328 23.5886C137.544 25.5404 136.651 28.4681 136.651 32.3717V54.9569H123.602V31.2006C123.602 24.1184 120.758 20.5773 115.07 20.5773C112.059 20.5773 109.661 21.581 107.876 23.5886C106.092 25.5404 105.199 28.4681 105.199 32.3717V54.9569H92.1501V9.95385H104.614V15.1401C106.287 13.244 108.322 11.7941 110.72 10.7903C113.174 9.78656 115.851 9.28467 118.75 9.28467C121.929 9.28467 124.801 9.92598 127.366 11.2086C129.931 12.4354 131.995 14.2478 133.556 16.6458C135.397 14.3036 137.711 12.4912 140.499 11.2086C143.343 9.92598 146.438 9.28467 149.784 9.28467Z" fill="black"/>
<path d="M123.911 71.885C128.101 71.885 131.9 72.8966 135.308 74.9198C138.772 76.8852 141.482 79.6888 143.437 83.3306C145.393 86.9146 146.371 91.1055 146.371 95.9034C146.371 100.701 145.393 104.921 143.437 108.563C141.482 112.147 138.772 114.951 135.308 116.974C131.9 118.939 128.101 119.922 123.911 119.922C118.156 119.922 113.631 118.043 110.335 114.286V136.05H97.261V72.5787H109.748V77.9546C112.988 73.9082 117.709 71.885 123.911 71.885ZM121.648 108.823C125 108.823 127.738 107.667 129.861 105.355C132.04 102.985 133.129 99.8342 133.129 95.9034C133.129 91.9726 132.04 88.8511 129.861 86.5388C127.738 84.1688 125 82.9838 121.648 82.9838C118.296 82.9838 115.53 84.1688 113.351 86.5388C111.228 88.8511 110.167 91.9726 110.167 95.9034C110.167 99.8342 111.228 102.985 113.351 105.355C115.53 107.667 118.296 108.823 121.648 108.823Z" fill="black"/>
<path d="M229.442 72.5787V119.228H216.955V113.852C213.715 117.899 209.022 119.922 202.876 119.922C198.63 119.922 194.775 118.939 191.311 116.974C187.903 115.008 185.221 112.205 183.266 108.563C181.31 104.921 180.333 100.701 180.333 95.9034C180.333 91.1055 181.31 86.8857 183.266 83.2439C185.221 79.6021 187.903 76.7985 191.311 74.8331C194.775 72.8677 198.63 71.885 202.876 71.885C208.631 71.885 213.128 73.7637 216.369 77.5211V72.5787H229.442ZM205.139 108.823C208.435 108.823 211.173 107.667 213.352 105.355C215.531 102.985 216.62 99.8342 216.62 95.9034C216.62 91.9726 215.531 88.8511 213.352 86.5388C211.173 84.1688 208.435 82.9838 205.139 82.9838C201.787 82.9838 199.021 84.1688 196.842 86.5388C194.663 88.8511 193.574 91.9726 193.574 95.9034C193.574 99.8342 194.663 102.985 196.842 105.355C199.021 107.667 201.787 108.823 205.139 108.823Z" fill="black"/>
<path d="M286.968 72.5787V111.424C286.968 119.98 284.873 126.338 280.683 130.5C276.493 134.662 270.403 136.743 262.413 136.743C258.167 136.743 254.145 136.194 250.346 135.096C246.602 133.998 243.446 132.408 240.876 130.327L246.072 120.616C247.971 122.234 250.29 123.506 253.027 124.431C255.765 125.356 258.53 125.818 261.324 125.818C265.682 125.818 268.866 124.778 270.878 122.697C272.889 120.616 273.895 117.436 273.895 113.159V111.598C272.219 113.332 270.235 114.661 267.945 115.586C265.654 116.511 263.196 116.974 260.57 116.974C254.648 116.974 249.954 115.24 246.491 111.771C243.027 108.245 241.295 102.985 241.295 95.9901V72.5787H254.368V93.9958C254.368 101.568 257.413 105.355 263.503 105.355C266.632 105.355 269.146 104.314 271.045 102.233C272.945 100.094 273.895 96.9439 273.895 92.7819V72.5787H286.968Z" fill="black"/>
<path d="M171.297 119.922C166.212 119.922 162.246 118.534 159.396 115.76C156.547 112.927 155.122 108.939 155.122 103.794V54.8899H168.196V103.013C168.196 104.979 168.671 106.511 169.621 107.609C170.626 108.65 172.023 109.17 173.811 109.17C174.481 109.17 175.152 109.083 175.822 108.91C176.548 108.736 177.107 108.534 177.498 108.303L178.085 118.794C175.906 119.546 173.643 119.922 171.297 119.922Z" fill="black"/>
</svg>
