<svg id="Calque_1" data-name="Calque 1" xmlns="http://www.w3.org/2000/svg" width="346.7mm" height="35.02mm" viewBox="0 0 982.77 99.26">
  <title>logo</title>
  <g>
    <path id="Tracé_40687" data-name="Tracé 40687" d="M734.36,339.47s8,9.07,17.72,9.07c3.88,0,7.77-1.4,7.77-5.72,0-8.53-35-9.51-35-33.7,0-13.93,12.2-23.22,27.54-23.22,10.26,0,24.64,5,24.64,16.75v8.42H759.76v-3.35c0-2.81-4-4.54-7.57-4.54-3.88,0-7.89,1.62-7.89,5.18,0,9.4,35,8.1,35,33.49,0,12.85-10,23.87-27.43,23.87A37.77,37.77,0,0,1,723.67,353Z" transform="translate(-312.63 -285.9)" fill="#d74102"/>
    <path id="Tracé_40688" data-name="Tracé 40688" d="M815,307.5c16.42,0,25.71,11.45,25.71,26.89,0,1.84-.43,5.62-.43,5.62H805.12a12.42,12.42,0,0,0,13,10.15,26,26,0,0,0,14.8-5.83l7.45,12.53a35.9,35.9,0,0,1-23.76,8.85c-19.87,0-30.57-14.37-30.57-29.16C786,320.25,797,307.5,815,307.5Zm6.59,21.17a7,7,0,0,0-6.59-7.13,8.93,8.93,0,0,0-9.29,7.13Z" transform="translate(-312.63 -285.9)" fill="#d74102"/>
    <path id="Tracé_40689" data-name="Tracé 40689" d="M862.52,336.87l-7-10.8c-1-1.4-1.29-1.62-3.56-1.62h-5.28V308.79h13.93a7.61,7.61,0,0,1,8,4.54l3.56,6.81a35.25,35.25,0,0,1,1.62,3.67H874s1-2.27,1.73-3.67l3.56-6.81a7.61,7.61,0,0,1,8-4.54h13.93v15.66H895.9c-2.27,0-2.59.22-3.56,1.62l-7,10.8,17.17,27.54H882L875.27,353c-.54-1-1.3-2.81-1.3-2.81h-.21S873,352,872.46,353l-6.58,11.45H845.36Z" transform="translate(-312.63 -285.9)" fill="#d74102"/>
    <path id="Tracé_40690" data-name="Tracé 40690" d="M912.8,326.82a2.15,2.15,0,0,0-1.91-2.37,1.85,1.85,0,0,0-.47,0h-4.1V308.79H923.6c5.5,0,7.89,2.37,7.89,7.89v24.73c0,5.19,2,7.35,5.94,7.35,8,0,11.77-7,11.77-15.34V308.78h18.69v37.59a2.16,2.16,0,0,0,1.9,2.38,2.44,2.44,0,0,0,.47,0h4.11v15.67H957.84c-5.07,0-7.88-2.49-7.88-6.27v-.75a11.21,11.21,0,0,1,.11-1.3h-.22a19.09,19.09,0,0,1-17.28,9.61c-11,0-19.76-5.18-19.76-20.84Z" transform="translate(-312.63 -285.9)" fill="#d74102"/>
    <path id="Tracé_40691" data-name="Tracé 40691" d="M1012.47,329.43h.76v-.65c0-5.29-2.49-7.24-7.13-7.24-2.38,0-4.86.54-4.86,2.7v2.49H984v-6.16c0-12.42,15.77-13.07,22.14-13.07,19.44,0,25.81,9.94,25.81,22.68v16.2a2.16,2.16,0,0,0,1.9,2.38h4.58v15.66h-16.2c-5.4,0-7.35-3.35-7.35-5.84v-1h-.21s-3.89,8.1-15.55,8.1c-10.36,0-18.89-6.91-18.89-17.94C980.18,331.26,1003.83,329.43,1012.47,329.43Zm-8.21,22c4.86,0,9.18-5.3,9.18-9.83v-.86h-1.73c-5.94,0-12.74,1.61-12.74,6C999,349.4,1000.59,351.46,1004.26,351.46Z" transform="translate(-312.63 -285.9)" fill="#d74102"/>
    <path id="Tracé_40692" data-name="Tracé 40692" d="M1047.59,305.22a2.15,2.15,0,0,0-1.9-2.37,1.93,1.93,0,0,0-.48,0h-4.1V287.19h17.28c5.5,0,7.89,2.37,7.89,7.89v51.3a2.15,2.15,0,0,0,1.91,2.37,1.85,1.85,0,0,0,.47,0h4.1v15.66h-17.27c-5.51,0-7.9-2.37-7.9-7.89Z" transform="translate(-312.63 -285.9)" fill="#d74102"/>
    <path id="Tracé_40693" data-name="Tracé 40693" d="M1083.75,326.83a2.15,2.15,0,0,0-1.91-2.37,1.85,1.85,0,0,0-.47,0h-4.1V308.8h17.28c5.5,0,7.89,2.38,7.89,7.89v29.7a2.16,2.16,0,0,0,1.9,2.38h4.57v15.66h-17.28c-5.5,0-7.89-2.38-7.89-7.9Zm1.4-39.63h15.66v15.12h-15.66Z" transform="translate(-312.63 -285.9)" fill="#d74102"/>
    <path id="Tracé_40694" data-name="Tracé 40694" d="M1119.51,323.38h-7.12V308.79h7.66v-15h18.15v15h11.66v14.59H1138.2v18c0,6.27,6.37,7.13,9.94,7.13a24.34,24.34,0,0,0,2.48-.11v16.2a35.92,35.92,0,0,1-5.08.33c-8.85,0-26-2.38-26-21.06Z" transform="translate(-312.63 -285.9)" fill="#d74102"/>
    <path id="Tracé_40695" data-name="Tracé 40695" d="M1185.65,307.5c16.42,0,25.71,11.45,25.71,26.89,0,1.84-.43,5.62-.43,5.62h-35.11a12.39,12.39,0,0,0,13,10.15,26,26,0,0,0,14.79-5.83l7.45,12.53a35.87,35.87,0,0,1-23.76,8.85c-19.87,0-30.56-14.37-30.56-29.16C1156.71,320.25,1167.72,307.5,1185.65,307.5Zm6.59,21.17a7,7,0,0,0-6.59-7.13,8.91,8.91,0,0,0-9.28,7.13Zm-5.07-41.47h16.95l-12.74,16.2h-13Z" transform="translate(-312.63 -285.9)" fill="#d74102"/>
    <rect id="Rectangle_927" data-name="Rectangle 927" x="899.73" y="89.85" width="83.05" height="9.41" fill="#d74102"/>
  </g>
  <g>
    <path id="Tracé_40679" data-name="Tracé 40679" d="M366.37,357.68l11.05,13.1-9.83,9-13.2-15.45a32.38,32.38,0,1,1,12-6.64Zm-22-3.83a20.78,20.78,0,1,0-20.21-21.34c0,.22,0,.44,0,.66a20,20,0,0,0,19.34,20.66c.3,0,.59,0,.89,0Z" transform="translate(-312.63 -285.9)" fill="#140b62"/>
    <path id="Tracé_40680" data-name="Tracé 40680" d="M432.27,364.42H419.91v-4.21a19.86,19.86,0,0,1-14.69,5.61c-11.24,0-18.72-8.05-18.72-19.65V317.7h12.36v25.84c0,6.55,3.74,10.95,9.45,10.95,7,0,11.6-4.69,11.6-16.1V317.7h12.36Z" transform="translate(-312.63 -285.9)" fill="#140b62"/>
    <path id="Tracé_40681" data-name="Tracé 40681" d="M489.46,344.39H453.89c1.22,6.74,6,10.85,11.7,10.85a11.91,11.91,0,0,0,11.61-6.17l11.05,2.33c-4.12,9.74-12.44,14.42-22.65,14.42a24.78,24.78,0,1,1,23.87-25.65h0Zm-35.2-8.71h22.56a10.87,10.87,0,0,0-11-8.61,11.72,11.72,0,0,0-11.52,8.61Z" transform="translate(-312.63 -285.9)" fill="#140b62"/>
    <path id="Tracé_40682" data-name="Tracé 40682" d="M507.34,349.53c.65,4.79,4.78,6.37,9.64,6.37,4.58,0,7.3-2.06,7.3-4.68,0-1.68-1.13-3.37-5.15-4.21l-9.55-2c-8.42-1.78-13.2-6.55-13.2-13.29,0-9,7.3-15.44,19.1-15.44,11,0,18.72,5.71,20.31,13.85L524,332.5c-.48-3.75-3.75-6.46-8.89-6.46-5,0-6.37,2.43-6.37,4.58,0,1.5.56,3.09,4.21,3.93L524.09,337c8.24,1.78,12.26,6.94,12.26,13.19,0,10.29-8.33,15.64-20.49,15.64-10.29,0-19.75-4-21-13.76Z" transform="translate(-312.63 -285.9)" fill="#140b62"/>
    <path id="Tracé_40683" data-name="Tracé 40683" d="M579.87,362.36a23.71,23.71,0,0,1-12.16,3.46c-11.05,0-18.35-5.8-18.35-18.63V327.82h-10V317.71h10V303.58h12.36v14.13H577v10.11H561.72v18.44c0,5.62,2.71,8.05,6.83,8.05a18.56,18.56,0,0,0,7.77-2.25Z" transform="translate(-312.63 -285.9)" fill="#140b62"/>
    <path id="Tracé_40684" data-name="Tracé 40684" d="M600.84,303.77a7.49,7.49,0,1,1-7.35-7.36A7.49,7.49,0,0,1,600.84,303.77Zm-13.67,60.65V317.71h12.36v46.71Z" transform="translate(-312.63 -285.9)" fill="#140b62"/>
    <path id="Tracé_40685" data-name="Tracé 40685" d="M660.18,341.11c0,14.7-11.51,24.52-25.18,24.52-13.94,0-25.46-9.82-25.46-24.52s11.52-24.52,25.46-24.52C648.67,316.59,660.18,326.42,660.18,341.11Zm-12,0A13.35,13.35,0,1,0,635,355.06a13.49,13.49,0,0,0,13.21-13.74A1.48,1.48,0,0,0,648.2,341.11Z" transform="translate(-312.63 -285.9)" fill="#140b62"/>
    <path id="Tracé_40686" data-name="Tracé 40686" d="M715.31,336v28.47H703V338.59c0-6.55-3.75-10.95-9.46-10.95-7,0-11.6,4.68-11.6,16.1v20.69H669.54V317.71H681.9v4.21a19.87,19.87,0,0,1,14.69-5.61C707.83,316.31,715.31,324.36,715.31,336Z" transform="translate(-312.63 -285.9)" fill="#140b62"/>
  </g>
</svg>
