<svg width="203" height="60" viewBox="0 0 203 60" fill="none" xmlns="http://www.w3.org/2000/svg">
<g clip-path="url(#clip0_6_172)">
<path d="M0 5C0 2.23858 2.23858 0 5 0H197.5C200.261 0 202.5 2.23858 202.5 5V55C202.5 57.7614 200.261 60 197.5 60H5C2.23857 60 0 57.7614 0 55V5Z" fill="black"/>
<path d="M102.204 32.6267C98.676 32.6267 95.8005 35.3102 95.8005 39.0062C95.8005 42.6797 98.676 45.3857 102.204 45.3857C105.733 45.3857 108.609 42.6797 108.609 39.0062C108.607 35.3102 105.732 32.6267 102.204 32.6267ZM102.204 42.8747C100.27 42.8747 98.604 41.2802 98.604 39.0077C98.604 36.7112 100.272 35.1407 102.204 35.1407C104.137 35.1407 105.804 36.7112 105.804 39.0077C105.804 41.2787 104.137 42.8747 102.204 42.8747ZM88.233 32.6267C84.705 32.6267 81.8295 35.3102 81.8295 39.0062C81.8295 42.6797 84.705 45.3857 88.233 45.3857C91.7625 45.3857 94.638 42.6797 94.638 39.0062C94.638 35.3102 91.7625 32.6267 88.233 32.6267ZM88.233 42.8747C86.2995 42.8747 84.633 41.2802 84.633 39.0077C84.633 36.7112 86.301 35.1407 88.233 35.1407C90.1665 35.1407 91.833 36.7112 91.833 39.0077C91.8345 41.2787 90.1665 42.8747 88.233 42.8747ZM71.616 34.5857V37.2917H78.093C77.8995 38.8142 77.3925 39.9257 76.6185 40.6982C75.6765 41.6402 74.202 42.6797 71.616 42.6797C67.629 42.6797 64.512 39.4652 64.512 35.4782C64.512 31.4912 67.629 28.2767 71.616 28.2767C73.767 28.2767 75.3375 29.1227 76.497 30.2102L78.4065 28.3007C76.7865 26.7542 74.637 25.5707 71.616 25.5707C66.1545 25.5707 61.563 30.0167 61.563 35.4782C61.563 40.9397 66.1545 45.3857 71.616 45.3857C74.5635 45.3857 76.788 44.4182 78.5265 42.6062C80.3145 40.8182 80.871 38.3042 80.871 36.2747C80.871 35.6477 80.823 35.0672 80.7255 34.5842H71.616V34.5857ZM139.578 36.6872C139.047 35.2622 137.427 32.6267 134.116 32.6267C130.83 32.6267 128.098 35.2127 128.098 39.0062C128.098 42.5822 130.806 45.3857 134.43 45.3857C137.353 45.3857 139.045 43.5977 139.747 42.5582L137.572 41.1077C136.848 42.1712 135.856 42.8717 134.43 42.8717C133.005 42.8717 131.989 42.2192 131.337 40.9382L139.867 37.4102L139.578 36.6872ZM130.878 38.8142C130.806 36.3482 132.787 35.0927 134.214 35.0927C135.325 35.0927 136.267 35.6492 136.582 36.4457L130.878 38.8142ZM123.943 45.0002H126.745V26.2487H123.943V45.0002ZM119.35 34.0532H119.254C118.626 33.3032 117.417 32.6267 115.896 32.6267C112.705 32.6267 109.782 35.4302 109.782 39.0317C109.782 42.6077 112.705 45.3872 115.896 45.3872C117.418 45.3872 118.626 44.7107 119.254 43.9382H119.35V44.8562C119.35 47.2967 118.045 48.6017 115.944 48.6017C114.228 48.6017 113.164 47.3702 112.729 46.3307L110.289 47.3462C110.989 49.0367 112.849 51.1157 115.944 51.1157C119.23 51.1157 122.01 49.1822 122.01 44.4692V33.0152H119.352V34.0532H119.35ZM116.137 42.8747C114.204 42.8747 112.585 41.2547 112.585 39.0317C112.585 36.7832 114.204 35.1407 116.137 35.1407C118.045 35.1407 119.544 36.7832 119.544 39.0317C119.544 41.2547 118.045 42.8747 116.137 42.8747ZM152.709 26.2487H146.002V45.0002H148.8V37.8962H152.707C155.809 37.8962 158.86 35.6507 158.86 32.0732C158.86 28.4957 155.811 26.2487 152.709 26.2487ZM152.781 35.2862H148.8V28.8587H152.781C154.873 28.8587 156.061 30.5912 156.061 32.0732C156.061 33.5252 154.873 35.2862 152.781 35.2862ZM170.079 32.5937C168.052 32.5937 165.954 33.4862 165.085 35.4647L167.569 36.5012C168.1 35.4647 169.09 35.1257 170.127 35.1257C171.574 35.1257 173.046 35.9942 173.07 37.5377V37.7312C172.563 37.4417 171.477 37.0082 170.151 37.0082C167.473 37.0082 164.746 38.4797 164.746 41.2292C164.746 43.7387 166.942 45.3542 169.402 45.3542C171.283 45.3542 172.321 44.5097 172.972 43.5197H173.068V44.9672H175.771V37.7777C175.773 34.4507 173.286 32.5937 170.079 32.5937ZM169.74 42.8702C168.825 42.8702 167.545 42.4112 167.545 41.2772C167.545 39.8297 169.138 39.2747 170.514 39.2747C171.742 39.2747 172.323 39.5402 173.07 39.9017C172.852 41.6402 171.357 42.8702 169.74 42.8702ZM185.614 33.0032L182.406 41.1332H182.31L178.98 33.0032H175.965L180.958 44.3657L178.111 50.6867H181.03L188.727 33.0032H185.614ZM160.405 45.0002H163.203V26.2487H160.405V45.0002Z" fill="white"/>
<g filter="url(#filter0_ii_6_172)">
<path d="M15.654 11.307C15.2175 11.769 14.9595 12.486 14.9595 13.4145V46.5885C14.9595 47.5185 15.2175 48.234 15.654 48.696L15.765 48.804L34.3485 30.2205V30.0015V29.7825L15.765 11.1975L15.654 11.307Z" fill="url(#paint0_linear_6_172)"/>
<path d="M40.542 36.417L34.3485 30.2205V30.0015V29.7825L40.5435 23.5875L40.683 23.667L48.0225 27.837C50.118 29.028 50.118 30.9765 48.0225 32.169L40.683 36.339L40.542 36.417Z" fill="url(#paint1_linear_6_172)"/>
<g filter="url(#filter1_i_6_172)">
<path d="M40.683 36.3375L34.347 30.0015L15.654 48.696C16.344 49.428 17.4855 49.518 18.771 48.789L40.683 36.3375Z" fill="url(#paint2_linear_6_172)"/>
</g>
<path d="M40.683 23.6655L18.771 11.2155C17.4855 10.485 16.344 10.5765 15.654 11.3085L34.3485 30.003L40.683 23.6655Z" fill="url(#paint3_linear_6_172)"/>
</g>
<path d="M48.377 12.4688V21H46.918V12.4688H48.377ZM51.0547 12.4688V13.6406H44.2637V12.4688H51.0547ZM57.5637 19.834V21H53.0344V19.834H57.5637ZM53.4504 12.4688V21H51.9797V12.4688H53.4504ZM56.9719 16.0312V17.1797H53.0344V16.0312H56.9719ZM57.5344 12.4688V13.6406H53.0344V12.4688H57.5344ZM54.0832 11.9004L55.2258 10.1367H56.8195L55.2258 11.9004H54.0832ZM63.9086 19.834V21H59.6254V19.834H63.9086ZM60.0355 12.4688V21H58.5648V12.4688H60.0355ZM70.4293 19.834V21H65.9V19.834H70.4293ZM66.316 12.4688V21H64.8453V12.4688H66.316ZM69.8375 16.0312V17.1797H65.9V16.0312H69.8375ZM70.4 12.4688V13.6406H65.9V12.4688H70.4ZM66.9488 11.9004L68.0914 10.1367H69.6852L68.0914 11.9004H66.9488ZM76.4695 18.2227H77.9344C77.8875 18.7812 77.7313 19.2793 77.4656 19.7168C77.2 20.1504 76.827 20.4922 76.3465 20.7422C75.866 20.9922 75.282 21.1172 74.5945 21.1172C74.0672 21.1172 73.5926 21.0234 73.1707 20.8359C72.7488 20.6445 72.3875 20.375 72.0867 20.0273C71.7859 19.6758 71.5555 19.252 71.3953 18.7559C71.2391 18.2598 71.1609 17.7051 71.1609 17.0918V16.3828C71.1609 15.7695 71.241 15.2148 71.4012 14.7188C71.5652 14.2227 71.7996 13.7988 72.1043 13.4473C72.409 13.0918 72.7742 12.8203 73.2 12.6328C73.6297 12.4453 74.1121 12.3516 74.6473 12.3516C75.327 12.3516 75.9012 12.4766 76.3699 12.7266C76.8387 12.9766 77.202 13.3223 77.4598 13.7637C77.7215 14.2051 77.8816 14.7109 77.9402 15.2812H76.4754C76.4363 14.9141 76.3504 14.5996 76.2176 14.3379C76.0887 14.0762 75.8973 13.877 75.6434 13.7402C75.3895 13.5996 75.0574 13.5293 74.6473 13.5293C74.3113 13.5293 74.0184 13.5918 73.7684 13.7168C73.5184 13.8418 73.3094 14.0254 73.1414 14.2676C72.9734 14.5098 72.8465 14.8086 72.7605 15.1641C72.6785 15.5156 72.6375 15.918 72.6375 16.3711V17.0918C72.6375 17.5215 72.6746 17.9121 72.7488 18.2637C72.827 18.6113 72.9441 18.9102 73.1004 19.1602C73.2605 19.4102 73.4637 19.6035 73.7098 19.7402C73.9559 19.877 74.2508 19.9453 74.5945 19.9453C75.0125 19.9453 75.3504 19.8789 75.6082 19.7461C75.8699 19.6133 76.0672 19.4199 76.2 19.166C76.3367 18.9082 76.4266 18.5938 76.4695 18.2227ZM84.707 16.0312V17.1973H80.1777V16.0312H84.707ZM80.541 12.4688V21H79.0703V12.4688H80.541ZM85.8379 12.4688V21H84.373V12.4688H85.8379ZM90.8176 13.6055L88.2687 21H86.7277L89.9387 12.4688H90.923L90.8176 13.6055ZM92.9504 21L90.3957 13.6055L90.2844 12.4688H91.2746L94.4973 21H92.9504ZM92.8273 17.8359V19.002H88.1867V17.8359H92.8273ZM95.2523 12.4688H98.2699C98.9184 12.4688 99.4711 12.5664 99.9281 12.7617C100.385 12.957 100.735 13.2461 100.977 13.6289C101.223 14.0078 101.346 14.4766 101.346 15.0352C101.346 15.4609 101.268 15.8359 101.112 16.1602C100.955 16.4844 100.735 16.7578 100.45 16.9805C100.164 17.1992 99.8246 17.3691 99.4301 17.4902L98.9848 17.707H96.2719L96.2602 16.541H98.2934C98.6449 16.541 98.9379 16.4785 99.1723 16.3535C99.4066 16.2285 99.5824 16.0586 99.6996 15.8438C99.8207 15.625 99.8812 15.3789 99.8812 15.1055C99.8812 14.8086 99.8227 14.5508 99.7055 14.332C99.5922 14.1094 99.4164 13.9395 99.1781 13.8223C98.9398 13.7012 98.6371 13.6406 98.2699 13.6406H96.723V21H95.2523V12.4688ZM100.121 21L98.1176 17.168L99.6586 17.1621L101.692 20.9238V21H100.121ZM109.162 16.6406V19.8984C109.041 20.0586 108.851 20.2344 108.593 20.4258C108.339 20.6133 108.002 20.7754 107.58 20.9121C107.158 21.0488 106.632 21.1172 106.004 21.1172C105.468 21.1172 104.978 21.0273 104.533 20.8477C104.088 20.6641 103.703 20.3965 103.379 20.0449C103.058 19.6934 102.81 19.2656 102.634 18.7617C102.459 18.2539 102.371 17.6758 102.371 17.0273V16.4355C102.371 15.791 102.451 15.2168 102.611 14.7129C102.775 14.2051 103.009 13.7754 103.314 13.4238C103.619 13.0723 103.986 12.8066 104.416 12.627C104.849 12.4434 105.339 12.3516 105.886 12.3516C106.586 12.3516 107.164 12.4688 107.621 12.7031C108.082 12.9336 108.437 13.2539 108.687 13.6641C108.937 14.0742 109.095 14.543 109.162 15.0703H107.72C107.673 14.7734 107.582 14.5078 107.445 14.2734C107.312 14.0391 107.121 13.8555 106.871 13.7227C106.625 13.5859 106.304 13.5176 105.91 13.5176C105.57 13.5176 105.271 13.582 105.013 13.7109C104.755 13.8398 104.541 14.0293 104.369 14.2793C104.201 14.5293 104.074 14.834 103.988 15.1934C103.902 15.5527 103.859 15.9629 103.859 16.4238V17.0273C103.859 17.4961 103.908 17.9121 104.005 18.2754C104.107 18.6387 104.252 18.9453 104.439 19.1953C104.63 19.4453 104.863 19.6348 105.136 19.7637C105.41 19.8887 105.718 19.9512 106.062 19.9512C106.398 19.9512 106.673 19.9238 106.888 19.8691C107.103 19.8105 107.273 19.7422 107.398 19.6641C107.527 19.582 107.627 19.5039 107.697 19.4297V17.7363H105.921V16.6406H109.162ZM116.175 19.834V21H111.645V19.834H116.175ZM112.061 12.4688V21H110.591V12.4688H112.061ZM115.583 16.0312V17.1797H111.645V16.0312H115.583ZM116.145 12.4688V13.6406H111.645V12.4688H116.145ZM117.176 12.4688H120.193C120.842 12.4688 121.395 12.5664 121.852 12.7617C122.309 12.957 122.658 13.2461 122.9 13.6289C123.146 14.0078 123.27 14.4766 123.27 15.0352C123.27 15.4609 123.191 15.8359 123.035 16.1602C122.879 16.4844 122.658 16.7578 122.373 16.9805C122.088 17.1992 121.748 17.3691 121.354 17.4902L120.908 17.707H118.195L118.184 16.541H120.217C120.568 16.541 120.861 16.4785 121.096 16.3535C121.33 16.2285 121.506 16.0586 121.623 15.8438C121.744 15.625 121.805 15.3789 121.805 15.1055C121.805 14.8086 121.746 14.5508 121.629 14.332C121.516 14.1094 121.34 13.9395 121.102 13.8223C120.863 13.7012 120.561 13.6406 120.193 13.6406H118.646V21H117.176V12.4688ZM122.045 21L120.041 17.168L121.582 17.1621L123.615 20.9238V21H122.045ZM129.801 21H127.979L127.991 19.834H129.801C130.329 19.834 130.77 19.7188 131.125 19.4883C131.485 19.2578 131.754 18.9277 131.934 18.498C132.118 18.0684 132.209 17.5566 132.209 16.9629V16.5C132.209 16.0391 132.157 15.6309 132.051 15.2754C131.95 14.9199 131.797 14.6211 131.594 14.3789C131.395 14.1367 131.149 13.9531 130.856 13.8281C130.567 13.7031 130.233 13.6406 129.854 13.6406H127.944V12.4688H129.854C130.42 12.4688 130.938 12.5645 131.407 12.7559C131.875 12.9434 132.28 13.2148 132.62 13.5703C132.963 13.9258 133.227 14.3516 133.411 14.8477C133.594 15.3438 133.686 15.8984 133.686 16.5117V16.9629C133.686 17.5762 133.594 18.1309 133.411 18.627C133.227 19.123 132.963 19.5488 132.62 19.9043C132.276 20.2559 131.866 20.5273 131.389 20.7188C130.916 20.9062 130.387 21 129.801 21ZM128.793 12.4688V21H127.323V12.4688H128.793ZM138.156 13.6055L135.607 21H134.066L137.277 12.4688H138.261L138.156 13.6055ZM140.289 21L137.734 13.6055L137.623 12.4688H138.613L141.836 21H140.289ZM140.166 17.8359V19.002H135.525V17.8359H140.166ZM149.358 12.4688V21H147.887L144.061 14.8887V21H142.591V12.4688H144.061L147.899 18.5918V12.4688H149.358ZM155.398 18.8027C155.398 18.627 155.371 18.4707 155.316 18.334C155.266 18.1973 155.174 18.0723 155.041 17.959C154.908 17.8457 154.721 17.7363 154.479 17.6309C154.24 17.5215 153.936 17.4102 153.564 17.2969C153.158 17.1719 152.783 17.0332 152.439 16.8809C152.1 16.7246 151.803 16.5449 151.549 16.3418C151.295 16.1348 151.098 15.8984 150.957 15.6328C150.816 15.3633 150.746 15.0527 150.746 14.7012C150.746 14.3535 150.818 14.0371 150.963 13.752C151.111 13.4668 151.32 13.2207 151.59 13.0137C151.863 12.8027 152.186 12.6406 152.557 12.5273C152.928 12.4102 153.338 12.3516 153.787 12.3516C154.42 12.3516 154.965 12.4688 155.422 12.7031C155.883 12.9375 156.236 13.252 156.482 13.6465C156.732 14.041 156.857 14.4766 156.857 14.9531H155.398C155.398 14.6719 155.338 14.4238 155.217 14.209C155.1 13.9902 154.92 13.8184 154.678 13.6934C154.439 13.5684 154.137 13.5059 153.77 13.5059C153.422 13.5059 153.133 13.5586 152.902 13.6641C152.672 13.7695 152.5 13.9121 152.387 14.0918C152.273 14.2715 152.217 14.4746 152.217 14.7012C152.217 14.8613 152.254 15.0078 152.328 15.1406C152.402 15.2695 152.516 15.3906 152.668 15.5039C152.82 15.6133 153.012 15.7168 153.242 15.8145C153.473 15.9121 153.744 16.0059 154.057 16.0957C154.529 16.2363 154.941 16.3926 155.293 16.5645C155.645 16.7324 155.938 16.9238 156.172 17.1387C156.406 17.3535 156.582 17.5977 156.699 17.8711C156.816 18.1406 156.875 18.4473 156.875 18.791C156.875 19.1504 156.803 19.4746 156.658 19.7637C156.514 20.0488 156.307 20.293 156.037 20.4961C155.771 20.6953 155.451 20.8496 155.076 20.959C154.705 21.0645 154.291 21.1172 153.834 21.1172C153.424 21.1172 153.02 21.0625 152.621 20.9531C152.227 20.8438 151.867 20.6777 151.543 20.4551C151.219 20.2285 150.961 19.9473 150.77 19.6113C150.578 19.2715 150.482 18.875 150.482 18.4219H151.953C151.953 18.6992 152 18.9355 152.094 19.1309C152.191 19.3262 152.326 19.4863 152.498 19.6113C152.67 19.7324 152.869 19.8223 153.096 19.8809C153.326 19.9395 153.572 19.9688 153.834 19.9688C154.178 19.9688 154.465 19.9199 154.695 19.8223C154.93 19.7246 155.105 19.5879 155.223 19.4121C155.34 19.2363 155.398 19.0332 155.398 18.8027Z" fill="white"/>
</g>
<path d="M5 1H197.5V-1H5V1ZM201.5 5V55H203.5V5H201.5ZM197.5 59H5V61H197.5V59ZM1 55V5H-1V55H1ZM5 59C2.79086 59 1 57.2091 1 55H-1C-1 58.3137 1.68629 61 5 61V59ZM201.5 55C201.5 57.2091 199.709 59 197.5 59V61C200.814 61 203.5 58.3137 203.5 55H201.5ZM197.5 1C199.709 1 201.5 2.79086 201.5 5H203.5C203.5 1.68629 200.814 -1 197.5 -1V1ZM5 -1C1.68629 -1 -1 1.68629 -1 5H1C1 2.79086 2.79086 1 5 1V-1Z" fill="#A6A6A6"/>
<defs>
<filter id="filter0_ii_6_172" x="14.9595" y="10.7114" width="34.6346" height="38.5811" filterUnits="userSpaceOnUse" color-interpolation-filters="sRGB">
<feFlood flood-opacity="0" result="BackgroundImageFix"/>
<feBlend mode="normal" in="SourceGraphic" in2="BackgroundImageFix" result="shape"/>
<feColorMatrix in="SourceAlpha" type="matrix" values="0 0 0 0 0 0 0 0 0 0 0 0 0 0 0 0 0 0 127 0" result="hardAlpha"/>
<feOffset dy="-0.15"/>
<feComposite in2="hardAlpha" operator="arithmetic" k2="-1" k3="1"/>
<feColorMatrix type="matrix" values="0 0 0 0 0 0 0 0 0 0 0 0 0 0 0 0 0 0 0.12 0"/>
<feBlend mode="normal" in2="shape" result="effect1_innerShadow_6_172"/>
<feColorMatrix in="SourceAlpha" type="matrix" values="0 0 0 0 0 0 0 0 0 0 0 0 0 0 0 0 0 0 127 0" result="hardAlpha"/>
<feOffset dy="0.15"/>
<feComposite in2="hardAlpha" operator="arithmetic" k2="-1" k3="1"/>
<feColorMatrix type="matrix" values="0 0 0 0 1 0 0 0 0 1 0 0 0 0 1 0 0 0 0.25 0"/>
<feBlend mode="normal" in2="effect1_innerShadow_6_172" result="effect2_innerShadow_6_172"/>
</filter>
<filter id="filter1_i_6_172" x="15.654" y="30.0015" width="25.029" height="19.291" filterUnits="userSpaceOnUse" color-interpolation-filters="sRGB">
<feFlood flood-opacity="0" result="BackgroundImageFix"/>
<feBlend mode="normal" in="SourceGraphic" in2="BackgroundImageFix" result="shape"/>
<feColorMatrix in="SourceAlpha" type="matrix" values="0 0 0 0 0 0 0 0 0 0 0 0 0 0 0 0 0 0 127 0" result="hardAlpha"/>
<feOffset dy="-0.15"/>
<feComposite in2="hardAlpha" operator="arithmetic" k2="-1" k3="1"/>
<feColorMatrix type="matrix" values="0 0 0 0 0 0 0 0 0 0 0 0 0 0 0 0 0 0 0.08 0"/>
<feBlend mode="normal" in2="shape" result="effect1_innerShadow_6_172"/>
</filter>
<linearGradient id="paint0_linear_6_172" x1="32.7012" y1="13.0635" x2="7.5282" y2="38.2365" gradientUnits="userSpaceOnUse">
<stop stop-color="#00A0FF"/>
<stop offset="0.0066" stop-color="#00A1FF"/>
<stop offset="0.2601" stop-color="#00BEFF"/>
<stop offset="0.5122" stop-color="#00D2FF"/>
<stop offset="0.7604" stop-color="#00DFFF"/>
<stop offset="1" stop-color="#00E3FF"/>
</linearGradient>
<linearGradient id="paint1_linear_6_172" x1="50.7502" y1="30.0015" x2="14.4564" y2="30.0015" gradientUnits="userSpaceOnUse">
<stop stop-color="#FFE000"/>
<stop offset="0.4087" stop-color="#FFBD00"/>
<stop offset="0.7754" stop-color="#FFA500"/>
<stop offset="1" stop-color="#FF9C00"/>
</linearGradient>
<linearGradient id="paint2_linear_6_172" x1="37.2422" y1="33.4423" x2="3.1044" y2="67.5801" gradientUnits="userSpaceOnUse">
<stop stop-color="#FF3A44"/>
<stop offset="1" stop-color="#C31162"/>
</linearGradient>
<linearGradient id="paint3_linear_6_172" x1="10.9461" y1="0.265194" x2="26.1896" y2="15.5086" gradientUnits="userSpaceOnUse">
<stop stop-color="#32A071"/>
<stop offset="0.0685" stop-color="#2DA771"/>
<stop offset="0.4762" stop-color="#15CF74"/>
<stop offset="0.8009" stop-color="#06E775"/>
<stop offset="1" stop-color="#00F076"/>
</linearGradient>
<clipPath id="clip0_6_172">
<path d="M0 5C0 2.23858 2.23858 0 5 0H197.5C200.261 0 202.5 2.23858 202.5 5V55C202.5 57.7614 200.261 60 197.5 60H5C2.23857 60 0 57.7614 0 55V5Z" fill="white"/>
</clipPath>
</defs>
</svg>
