<svg width="234" height="120" viewBox="0 0 234 120" fill="none" xmlns="http://www.w3.org/2000/svg">
<path fill-rule="evenodd" clip-rule="evenodd" d="M155.488 106.868C157.143 108.839 156.861 111.757 154.857 113.385C147.579 119.299 139.925 120.645 133.343 119.746C126.946 118.873 121.684 115.909 118.65 113.303C116.692 111.621 116.491 108.697 118.201 106.771C119.91 104.845 122.882 104.648 124.84 106.329C126.686 107.915 130.291 109.982 134.637 110.576C138.797 111.144 143.761 110.394 148.864 106.247C150.867 104.619 153.833 104.897 155.488 106.868Z" fill="#E85439"/>
<path d="M22.2537 43.682C21.2102 44.4665 19.9172 45.0665 18.3747 45.4818C16.8775 45.8511 15.3122 46.0357 13.6789 46.0357C9.27806 46.0357 5.89804 44.905 3.53882 42.6436C1.17961 40.3822 0 37.0593 0 32.6749V0H10.6165V9.06868H19.6677V17.3759H10.6165V32.5365C10.6165 34.1056 11.0021 35.3286 11.7734 36.2055C12.5447 37.0362 13.6562 37.4516 15.108 37.4516C16.7413 37.4516 18.1932 36.9901 19.4635 36.067L22.2537 43.682Z" fill="black"/>
<path d="M65.1354 8.23796V45.4818H55.0633V41.0513C53.6569 42.6666 51.9782 43.9127 50.0273 44.7896C48.0764 45.6203 45.9668 46.0357 43.6983 46.0357C38.8891 46.0357 35.0781 44.6281 32.2652 41.8128C29.4523 38.9976 28.0458 34.821 28.0458 29.2828V8.23796H38.6623V27.6906C38.6623 33.6903 41.1349 36.6901 46.0802 36.6901C48.6209 36.6901 50.6625 35.8594 52.2051 34.1979C53.7476 32.4903 54.5189 29.9751 54.5189 26.6522V8.23796H65.1354Z" fill="black"/>
<path d="M165.189 37.3823C167.095 37.3823 168.774 37.1054 170.225 36.5516C171.723 35.9517 173.106 35.0286 174.377 33.7826L180.025 40.013C176.577 44.0281 171.541 46.0357 164.917 46.0357C160.789 46.0357 157.136 45.228 153.961 43.6127C150.785 41.9513 148.335 39.6668 146.611 36.7593C144.887 33.8518 144.025 30.552 144.025 26.8599C144.025 23.214 144.864 19.9372 146.543 17.0297C148.267 14.0761 150.603 11.7916 153.552 10.1763C156.547 8.51486 159.904 7.68415 163.624 7.68415C167.118 7.68415 170.294 8.44564 173.152 9.96863C176.01 11.4455 178.279 13.6146 179.957 16.4759C181.681 19.2911 182.543 22.6371 182.543 26.5138L155.458 31.8442C156.229 33.6903 157.431 35.0748 159.065 35.9978C160.743 36.9208 162.785 37.3823 165.189 37.3823ZM163.624 15.8529C160.947 15.8529 158.77 16.7297 157.091 18.4835C155.412 20.2372 154.528 22.6602 154.437 25.7523L172.267 22.2217C171.768 20.2834 170.747 18.7373 169.205 17.5835C167.662 16.4298 165.802 15.8529 163.624 15.8529Z" fill="black"/>
<path d="M121.86 7.68396C126.443 7.68396 130.072 9.06849 132.749 11.8376C135.471 14.5605 136.832 18.6679 136.832 24.1599V45.4817H126.216V25.8213C126.216 22.8676 125.603 20.6755 124.378 19.2448C123.199 17.768 121.497 17.0295 119.274 17.0295C116.779 17.0295 114.805 17.8603 113.353 19.5217C111.902 21.137 111.176 23.5599 111.176 26.7905V45.4817H100.559V25.8213C100.559 19.9601 98.2453 17.0295 93.6177 17.0295C91.1677 17.0295 89.2168 17.8603 87.765 19.5217C86.3132 21.137 85.5873 23.5599 85.5873 26.7905V45.4817H74.9708V8.23777H85.1109V12.5298C86.472 10.9607 88.1279 9.76075 90.0788 8.93004C92.0751 8.09932 94.2528 7.68396 96.612 7.68396C99.1981 7.68396 101.535 8.2147 103.622 9.27617C105.709 10.2915 107.387 11.7914 108.658 13.7759C110.155 11.8376 112.038 10.3376 114.306 9.27617C116.62 8.2147 119.138 7.68396 121.86 7.68396Z" fill="black"/>
<path d="M100.81 59.4911C104.22 59.4911 107.31 60.3283 110.083 62.0027C112.901 63.6292 115.106 65.9494 116.697 68.9633C118.288 71.9294 119.083 75.3977 119.083 79.3684C119.083 83.3391 118.288 86.8314 116.697 89.8453C115.106 92.8113 112.901 95.1315 110.083 96.8059C107.31 98.4325 104.22 99.2457 100.81 99.2457C96.1287 99.2457 92.4469 97.691 89.7651 94.5814V112.593H79.1289V60.0652H89.2879V64.5143C91.9242 61.1655 95.7651 59.4911 100.81 59.4911ZM98.9696 90.0606C101.697 90.0606 103.924 89.1038 105.651 87.1902C107.424 85.2288 108.31 82.6215 108.31 79.3684C108.31 76.1153 107.424 73.532 105.651 71.6184C103.924 69.657 101.697 68.6763 98.9696 68.6763C96.2423 68.6763 93.9924 69.657 92.2196 71.6184C90.4924 73.532 89.6288 76.1153 89.6288 79.3684C89.6288 82.6215 90.4924 85.2288 92.2196 87.1902C93.9924 89.1038 96.2423 90.0606 98.9696 90.0606Z" fill="black"/>
<path d="M186.668 60.0652V98.6717H176.509V94.2226C173.872 97.5714 170.054 99.2457 165.054 99.2457C161.6 99.2457 158.463 98.4325 155.645 96.8059C152.873 95.1794 150.691 92.8592 149.1 89.8453C147.509 86.8314 146.713 83.3391 146.713 79.3684C146.713 75.3977 147.509 71.9055 149.1 68.8916C150.691 65.8777 152.873 63.5575 155.645 61.9309C158.463 60.3044 161.6 59.4911 165.054 59.4911C169.736 59.4911 173.395 61.0459 176.031 64.1555V60.0652H186.668ZM166.895 90.0606C169.577 90.0606 171.804 89.1038 173.577 87.1902C175.35 85.2288 176.236 82.6215 176.236 79.3684C176.236 76.1153 175.35 73.532 173.577 71.6184C171.804 69.657 169.577 68.6763 166.895 68.6763C164.168 68.6763 161.918 69.657 160.145 71.6184C158.372 73.532 157.486 76.1153 157.486 79.3684C157.486 82.6215 158.372 85.2288 160.145 87.1902C161.918 89.1038 164.168 90.0606 166.895 90.0606Z" fill="black"/>
<path d="M233.469 60.0652V92.2133C233.469 99.2936 231.765 104.556 228.356 108C224.947 111.445 219.992 113.167 213.492 113.167C210.038 113.167 206.765 112.713 203.674 111.804C200.629 110.895 198.061 109.579 195.97 107.857L200.197 99.8198C201.742 101.159 203.629 102.212 205.856 102.977C208.083 103.743 210.333 104.125 212.606 104.125C216.151 104.125 218.742 103.264 220.379 101.542C222.015 99.8198 222.833 97.1886 222.833 93.6485V92.3568C221.469 93.792 219.856 94.8923 217.992 95.6578C216.129 96.4232 214.129 96.8059 211.992 96.8059C207.174 96.8059 203.356 95.3707 200.538 92.5004C197.72 89.5822 196.311 85.2288 196.311 79.4402V60.0652H206.947V77.7897C206.947 84.0567 209.424 87.1902 214.379 87.1902C216.924 87.1902 218.969 86.3291 220.515 84.6069C222.06 82.8368 222.833 80.2295 222.833 76.7851V60.0652H233.469Z" fill="black"/>
<path d="M139.362 99.2456C135.226 99.2456 131.998 98.0975 129.68 95.8012C127.362 93.457 126.203 90.1561 126.203 85.8984V45.4262H136.839V85.2526C136.839 86.8791 137.226 88.1468 137.998 89.0558C138.817 89.9169 139.953 90.3475 141.407 90.3475C141.953 90.3475 142.498 90.2757 143.044 90.1322C143.635 89.9887 144.089 89.8212 144.407 89.6299L144.885 98.3127C143.112 98.9347 141.271 99.2456 139.362 99.2456Z" fill="black"/>
</svg>
