<svg xmlns="http://www.w3.org/2000/svg" xmlns:xlink="http://www.w3.org/1999/xlink" width="91.046" height="114.684" viewBox="0 0 91.046 114.684">
  <defs>
    <linearGradient id="linear-gradient" x1="0.5" x2="0.5" y2="1" gradientUnits="objectBoundingBox">
      <stop offset="0" stop-color="#c80352"/>
      <stop offset="1" stop-color="#f1732c"/>
    </linearGradient>
  </defs>
  <path id="Tracé_34" data-name="Tracé 34" d="M369.707,256.968l-1.818,3.117v4.026l-1.818,2.208.39,1.039-3.507,2.987-1.039,1.169-2.468.649-2.338,4.416-2.857,3.507.13,2.987-1.169.779.13,5.325,1.688.26-.39,1.948.52,1.818.13,1.429-1.3,1.3.26,2.987,1.169.649-.13,1.3.39.909.26,4.286.909.52.519,1.169-.519,3.117,2.208,2.078,2.857,4.026-.13,1.169,1.818-.13,2.078,2.857v1.818l1.689.519,1.429,1.559-1.039,1.688.39,3.507-1.688,1.818-.26,2.727h-2.078l-2.338,3.9-.39,1.169,1.039.26.13,1.948.39,3.766-1.688,5.585-1.688,1.3-1.3,3.117-1.169,3.117-2.078,3.117-1.948.13-.909,2.727-1.429-.13.519,1.818,1.948,2.338h3.377l.649,1.559,3.117.13,1.818-.519s-.13,1.688.65,1.688,1.948.13,1.948.13l.909-2.6,2.078.39,1.948-.779.519-1.948,1.429-1.3h1.818l1.688-1.559,1.818.649-.52,1.3s5.975,1.3,6.364,1.3,2.857-.519,2.857-.519l3.117-2.338,3.247,2.338-1.039,2.078,8.053,1.3,3.507-.65,1.818-3.247,6.1-2.857s.13-1.688.519-1.948a8.154,8.154,0,0,0,2.6-2.078,3.914,3.914,0,0,0,.649-2.468c0-.779,3.117-8.053,2.728-7.4l1.948-3.377,1.688-4.416-.39-1.818,2.208-3.767,1.818-.649,6.884-11.559.519-3.377,5.585-4.546,1.039-3.507,3.247-2.078.26-5.325-1.689-2.987-1.688-4.806-.519-2.6-1.169-2.6-3.637-1.429.13,4.676H431.79l-.779-2.078-.779-2.987-6.1-4.935-4.676-1.559-3.247-3.637-2.6-1.688-7.273-7.014-4.156-3.507-6.364-2.857-4.546-2.727-2.338,1.429-4.286-.26-9.871-5.2Z" transform="translate(-350.745 -256.968)" fill="url(#linear-gradient)"/>
</svg>
