<svg xmlns="http://www.w3.org/2000/svg" xmlns:xlink="http://www.w3.org/1999/xlink" width="254.704" height="156.86" viewBox="0 0 254.704 156.86">
  <defs>
    <linearGradient id="linear-gradient" x1="0.495" y1="1.412" x2="1.023" y2="1.314" gradientUnits="objectBoundingBox">
      <stop offset="0" stop-color="#c80352"/>
      <stop offset="1" stop-color="#f1732c"/>
    </linearGradient>
    <linearGradient id="linear-gradient-2" x1="0.495" y1="2.131" x2="1.022" y2="2.026" xlink:href="#linear-gradient"/>
  </defs>
  <g id="logo_Tumeplay" data-name="logo Tumeplay" transform="translate(-139 -103.102)">
    <path id="Tracé_1" data-name="Tracé 1" d="M277.693,451.989c.011-.264.02-.472.025-.623s.009-.279.009-.363.008-.144.008-.177v-.212c.006-.045.011-.118.017-.219s.014-.25.025-.43.025-.43.042-.734a1.748,1.748,0,0,1,.051-.38.228.228,0,0,1,.194-.135h1.552l1.526-.017a.192.192,0,0,1,.126.042.2.2,0,0,1,.051.16l-.236,2.648a2.285,2.285,0,0,1-.068.38c-.017.073-.079.115-.186.126l-1.476.018q-.75.009-1.569.009a.254.254,0,0,1-.076-.009c-.011-.006-.017-.023-.017-.05Z" transform="translate(-81.936 -204.169)" fill="#c80352"/>
    <path id="Tracé_2" data-name="Tracé 2" d="M480.714,451.989c.011-.264.02-.472.025-.623s.008-.279.008-.363.009-.144.009-.177v-.212c.006-.045.011-.118.017-.219s.014-.25.025-.43.025-.43.042-.734a1.746,1.746,0,0,1,.051-.38.228.228,0,0,1,.194-.135h1.552l1.527-.017a.192.192,0,0,1,.126.042.2.2,0,0,1,.051.16l-.236,2.648a2.282,2.282,0,0,1-.068.38c-.017.073-.079.115-.186.126l-1.476.018q-.751.009-1.569.009a.252.252,0,0,1-.076-.009c-.011-.006-.017-.023-.017-.05Z" transform="translate(-201.874 -204.169)" fill="#c80352"/>
    <path id="Tracé_3" data-name="Tracé 3" d="M145.908,402.773q.126-1.846.253-3.567t.228-3.34l.911-11.944q.152-1.366.253-2.48.1-1.139.152-2.2.076-1.088.126-2.176.076-1.114.152-2.455-.835-.025-1.771-.025H139.4a.333.333,0,0,1-.354-.2,1.878,1.878,0,0,1-.051-.405V373.8l2.784-7.313-.025-.1a.228.228,0,0,1,.152-.2,2.189,2.189,0,0,1,.759-.152q3.492-.2,6.756-.38,3.29-.2,6.478-.354l6.4-.3q3.213-.152,6.6-.279a2.8,2.8,0,0,1,.633.076q.355.075.354.557a.227.227,0,0,1-.025.1.224.224,0,0,0-.025.1q-.4,1.037-.759,1.974-.329.936-.658,1.847t-.683,1.847q-.329.936-.734,1.974a1.12,1.12,0,0,0-.1.253,3.882,3.882,0,0,1-.228.481,2.118,2.118,0,0,1-.4.481,1.017,1.017,0,0,1-.633.253,1.3,1.3,0,0,0-.253-.025h-7.035q-.126,1.291-.253,2.733-.1,1.443-.253,2.809L156,399.94a2.22,2.22,0,0,1-.1.456.461.461,0,0,1-.329.329l-7.161,2.581c-.185.068-.43.151-.734.252a2.774,2.774,0,0,1-.886.152,1.155,1.155,0,0,1-.633-.177.753.753,0,0,1-.253-.658Z" transform="translate(0 -154.553)" fill="#fff"/>
    <path id="Tracé_4" data-name="Tracé 4" d="M230.711,411.831a4.9,4.9,0,0,1-.2,1.164.731.731,0,0,1-.557.4q-2.151.606-4.5,1.239a27.544,27.544,0,0,0-4.529,1.619.741.741,0,0,1-.228.026c-.135,0-.219-.033-.253-.1a.926.926,0,0,1-.025-.227v-.179q.025-.125.076-.479.051-.33.127-.937.1-.606.253-1.619a27.058,27.058,0,0,1-5.036,2.682,10.693,10.693,0,0,1-3.872.861q-4.226,0-6.174-2.024-1.923-2.05-1.923-6.1,0-.734.025-1.493a13.112,13.112,0,0,1,.152-1.594q.279-2.986.481-5.112.2-2.151.329-3.644t.2-2.429q.1-.961.152-1.594.076-.633.1-1.038.05-.43.1-.835.1-.81.177-1.139a.685.685,0,0,1,.582-.43q1.189-.228,2.252-.4,1.088-.2,2.126-.4,1.063-.228,2.151-.481t2.3-.607h.1a.22.22,0,0,1,.1-.025q.3,0,.3.2v.05q-.1.861-.177,1.619t-.152,1.569q-.076.785-.177,1.7-.076.911-.2,2.126-.127,1.189-.3,2.758t-.431,3.644l-.3,3.036a27.532,27.532,0,0,0-.152,2.784,8.008,8.008,0,0,0,.1,1.316,3,3,0,0,0,.354,1.012,1.967,1.967,0,0,0,.709.632,2.375,2.375,0,0,0,1.113.228,6.329,6.329,0,0,0,1.442-.228,6.743,6.743,0,0,0,1.822-.835,6.126,6.126,0,0,0,1.594-1.569,4.711,4.711,0,0,0,.81-2.48q.177-2.506.3-4.175.152-1.7.253-2.834.1-1.164.177-1.948t.126-1.493q.076-.734.126-1.544.05-.835.1-2.075a5.928,5.928,0,0,1,.177-1.139.735.735,0,0,1,.582-.43q2.3-.455,4.707-.911a43.622,43.622,0,0,0,4.707-1.215q.2,0,.228.076a.247.247,0,0,1,.051.177Z" transform="translate(-38.319 -167.558)" fill="#fff"/>
    <path id="Tracé_5" data-name="Tracé 5" d="M331.432,414.82c-.185.05-.43.127-.734.228a2.443,2.443,0,0,1-.886.177,1.155,1.155,0,0,1-.633-.177.69.69,0,0,1-.253-.607v-.151q.177-1.848.3-2.986.126-1.164.2-1.873t.126-1.063q.051-.379.1-.683c.034-.22.059-.455.076-.709q.051-.379.127-1.063.076-.708.177-1.847.126-1.164.3-3.036.1-1.012.2-2a15,15,0,0,0,.126-1.847,13.306,13.306,0,0,0-.126-1.923,4.478,4.478,0,0,0-.4-1.493,2.3,2.3,0,0,0-.784-.987,2.2,2.2,0,0,0-1.291-.354,5.322,5.322,0,0,0-1.265.2,5.123,5.123,0,0,0-1.544.734,5.4,5.4,0,0,0-1.417,1.366,4.458,4.458,0,0,0-.81,2.125v.1q-.3,2.884-.557,5.01-.228,2.1-.4,3.618t-.3,2.531q-.1,1.012-.177,1.72-.076.683-.126,1.139-.026.455-.025.86v.354a1.177,1.177,0,0,1,.025.228.437.437,0,0,1-.2.354,3.544,3.544,0,0,1-.835.33l-5.946,1.72c-.186.05-.43.127-.734.228a2.441,2.441,0,0,1-.886.177,1.156,1.156,0,0,1-.633-.177.689.689,0,0,1-.253-.607v-.151q.177-1.848.278-2.986.126-1.164.2-1.873.1-.708.152-1.063.05-.379.076-.683c.034-.22.067-.455.1-.709s.068-.607.1-1.063q.076-.708.177-1.847.126-1.164.3-3.036.1-1.012.2-2a15.009,15.009,0,0,0,.126-1.847,16.55,16.55,0,0,0-.1-1.923,4.935,4.935,0,0,0-.379-1.493,2.293,2.293,0,0,0-.708-.987,1.84,1.84,0,0,0-1.164-.354,5.436,5.436,0,0,0-1.392.253,6.579,6.579,0,0,0-1.746.835,6.1,6.1,0,0,0-1.544,1.544,4.544,4.544,0,0,0-.759,2.328q-.2,1.873-.329,3.087-.126,1.189-.2,1.974-.075.759-.126,1.24-.025.455-.05.86-.026.1-.076.582-.051.455-.126,1.113-.051.633-.126,1.392-.051.734-.1,1.392-.05.632-.1,1.113-.025.456-.025.557v.455a3.119,3.119,0,0,1-.025.43.655.655,0,0,1-.152.329,1.165,1.165,0,0,1-.379.278,4.507,4.507,0,0,1-.658.278l-6.63,2.353c-.186.068-.431.151-.734.253a2.8,2.8,0,0,1-.886.151,1.156,1.156,0,0,1-.633-.177.69.69,0,0,1-.253-.607l2.277-25.81a5.932,5.932,0,0,1,.177-1.139.734.734,0,0,1,.582-.43q2.3-.455,4.707-.911a43.794,43.794,0,0,0,4.707-1.215q.2,0,.227.076a.249.249,0,0,1,.05.177l-.329,3.695q.936-.481,2.1-1.037a26.363,26.363,0,0,1,2.429-1.063A20.978,20.978,0,0,1,313.82,386a10.921,10.921,0,0,1,2.606-.329,6.543,6.543,0,0,1,3.214.81,5.937,5.937,0,0,1,2.455,2.631,25.441,25.441,0,0,1,2.4-1.366,23.066,23.066,0,0,1,2.606-1.088,19.709,19.709,0,0,1,2.682-.709,14.053,14.053,0,0,1,2.606-.253,9.782,9.782,0,0,1,3.011.455,6.031,6.031,0,0,1,2.455,1.493,7.106,7.106,0,0,1,1.67,2.707,11.682,11.682,0,0,1,.607,4.024q0,.607-.025,1.265-.025.632-.1,1.316l-1.164,10.83q-.127,1.063-.152,1.974-.025.885-.025,2.075v.354a1.174,1.174,0,0,1,.025.228.4.4,0,0,1-.2.354,3.545,3.545,0,0,1-.835.33Z" transform="translate(-91.738 -166.499)" fill="#fff"/>
    <path id="Tracé_6" data-name="Tracé 6" d="M430.052,386.729a10.152,10.152,0,0,1,4.352.911,10.709,10.709,0,0,1,3.366,2.328,10.119,10.119,0,0,1,2.176,3.188,8.929,8.929,0,0,1,.759,3.543,6.088,6.088,0,0,1-.962,3.163,9.965,9.965,0,0,1-2.707,2.834,14.446,14.446,0,0,1-4.15,2.05,17.3,17.3,0,0,1-5.339.785,17.865,17.865,0,0,1-3.188-.3,3.926,3.926,0,0,0,.633,1.872,4.455,4.455,0,0,0,1.341,1.291,6.3,6.3,0,0,0,1.822.759,9.888,9.888,0,0,0,2.125.228,12.99,12.99,0,0,0,2.328-.2,17.065,17.065,0,0,0,2.176-.582q1.037-.354,2-.784t1.822-.861q.228-.05.379-.076a1.193,1.193,0,0,1,.329-.051s-.009.135-.025.4v1.139q0,.734-.025,1.771,0,1.037-.025,2.3a.793.793,0,0,1,.1.253,1.092,1.092,0,0,1,.025.2q0,.3-.557.658a9.748,9.748,0,0,1-1.467.733,19.986,19.986,0,0,1-2.05.734q-1.139.354-2.328.633a20.6,20.6,0,0,1-2.3.455,12.636,12.636,0,0,1-1.948.177,15.12,15.12,0,0,1-5.314-.962,14.137,14.137,0,0,1-4.555-2.707,13.131,13.131,0,0,1-4.352-10,16.742,16.742,0,0,1,1.138-6.2,15.366,15.366,0,0,1,3.189-5.061,15.143,15.143,0,0,1,4.934-3.391A15.671,15.671,0,0,1,430.052,386.729Zm-.3,6.731a4.144,4.144,0,0,0-1.923.456,5.273,5.273,0,0,0-1.594,1.265,8.052,8.052,0,0,0-1.24,1.974,13.081,13.081,0,0,0-.86,2.53,40.251,40.251,0,0,0,4.327-.962,18.151,18.151,0,0,0,2.758-1.012,4.851,4.851,0,0,0,1.468-1.037,1.643,1.643,0,0,0,.43-1.012,1.29,1.29,0,0,0-.354-.86,3.144,3.144,0,0,0-.835-.708,4.055,4.055,0,0,0-1.113-.456A3.673,3.673,0,0,0,429.749,393.46Z" transform="translate(-162.751 -167.558)" fill="#fff"/>
    <path id="Tracé_7" data-name="Tracé 7" d="M507.7,396.174q-.151,2.429-.278,3.947-.1,1.518-.177,2.48-.076.937-.127,1.493c-.034.354-.059.692-.076,1.012a5.982,5.982,0,0,0,1.72,2.48,4.171,4.171,0,0,0,2.734.936,3.688,3.688,0,0,0,2.429-.861,6.808,6.808,0,0,0,1.746-2.277,12.279,12.279,0,0,0,1.062-3.112,16.8,16.8,0,0,0,.356-3.416,12.407,12.407,0,0,0-.253-2.581,6.86,6.86,0,0,0-.708-2.049,3.709,3.709,0,0,0-1.215-1.367,2.843,2.843,0,0,0-1.7-.506,4.276,4.276,0,0,0-1.62.329,7.358,7.358,0,0,0-1.519.809,7.764,7.764,0,0,0-1.34,1.114,8.252,8.252,0,0,0-.961,1.189Zm.507-7.414a20.665,20.665,0,0,1,4.453-2.3,13.908,13.908,0,0,1,4.858-.861,8.1,8.1,0,0,1,4.1.987,8.277,8.277,0,0,1,2.885,2.631,11.417,11.417,0,0,1,1.67,3.8,17.9,17.9,0,0,1,.557,4.5,21.962,21.962,0,0,1-.4,4.15,22.564,22.564,0,0,1-1.191,4.074,19.528,19.528,0,0,1-1.948,3.669,14.841,14.841,0,0,1-2.682,3.012,11.965,11.965,0,0,1-3.341,2,10.721,10.721,0,0,1-4,.734,9.049,9.049,0,0,1-3.643-.759,14.646,14.646,0,0,1-3.239-1.974c0,.083-.026.4-.077.936-.033.523-.085,1.164-.151,1.923s-.144,1.569-.229,2.429q-.125,1.317-.228,2.456t-.177,1.922q-.05.81-.05.937v.328a1.682,1.682,0,0,1,.026.279.376.376,0,0,1-.2.328,2.468,2.468,0,0,1-.835.33l-6.655,1.7c-.186.05-.431.125-.734.227a2.431,2.431,0,0,1-.885.177,1.155,1.155,0,0,1-.633-.177.751.751,0,0,1-.252-.658l3.086-37.046a5.894,5.894,0,0,1,.177-1.138.734.734,0,0,1,.582-.431q2.3-.455,4.732-.911a43.132,43.132,0,0,0,4.733-1.215c.134,0,.21.025.227.076a.249.249,0,0,1,.051.177.682.682,0,0,1-.026.151,2.93,2.93,0,0,1-.075.455q-.052.355-.177,1.088Q508.413,387.469,508.211,388.759Z" transform="translate(-210.435 -166.426)" fill="#fff"/>
    <path id="Tracé_8" data-name="Tracé 8" d="M581.739,378.219q.3-3.466.481-6.858.2-3.391.431-6.959a5.3,5.3,0,0,1,.151-1.139.738.738,0,0,1,.583-.43l4.706-.86a44.6,44.6,0,0,0,4.758-1.189.768.768,0,0,1,.228-.025q.279,0,.279.253l-3.291,36.135v.43a.478.478,0,0,1-.177.379,3.137,3.137,0,0,1-.835.3l-6.629,2.429a5.228,5.228,0,0,1-.734.253,2.809,2.809,0,0,1-.885.153,1.146,1.146,0,0,1-.633-.179.687.687,0,0,1-.252-.606v-.152q.2-2.555.378-4.985.2-2.455.4-5.061.229-2.606.481-5.516T581.739,378.219Z" transform="translate(-260.481 -152.216)" fill="#fff"/>
    <path id="Tracé_9" data-name="Tracé 9" d="M643.814,409.262a.816.816,0,0,0-.025.2v.152a2.488,2.488,0,0,0,.2,1.063,3.734,3.734,0,0,0,.431.683c.169.169.321.312.455.43q.2.152.2.279,0,.354-.759.658l-6.808,2.909q-.026.026-.177.026c-.135,0-.269-.118-.4-.354a5.879,5.879,0,0,1-.4-.911q-.177-.532-.354-1.139c-.1-.422-.194-.809-.279-1.164a10.367,10.367,0,0,1-3.44,2.707,8.629,8.629,0,0,1-3.67.861,9.8,9.8,0,0,1-4.15-.936,11.169,11.169,0,0,1-3.593-2.657,13.656,13.656,0,0,1-2.531-4.2,15.373,15.373,0,0,1-.936-5.516,20.028,20.028,0,0,1,1.037-6.6,16.647,16.647,0,0,1,2.86-5.137,12.656,12.656,0,0,1,4.175-3.315,11.321,11.321,0,0,1,5.086-1.189,8.452,8.452,0,0,1,3.593.785,14.849,14.849,0,0,1,3.214,1.974,9.2,9.2,0,0,0,.177-1.215,3.248,3.248,0,0,1,.1-.708.53.53,0,0,1,.354-.329,3.212,3.212,0,0,1,.835-.152q1.822-.254,3.619-.456,1.823-.228,3.8-.329Zm-7.566-9.54a24.136,24.136,0,0,0,.33-2.707q.1-1.291.151-2.354-.4-.3-.885-.633a7.35,7.35,0,0,0-1.012-.607,5.277,5.277,0,0,0-1.139-.481,4.247,4.247,0,0,0-1.239-.177,3.226,3.226,0,0,0-2.3.886,7.008,7.008,0,0,0-1.493,2.176,12.262,12.262,0,0,0-.81,2.733,16.71,16.71,0,0,0-.228,2.556,12.614,12.614,0,0,0,1.038,5.871,3.26,3.26,0,0,0,2.935,1.847,4.124,4.124,0,0,0,1.7-.43,9.489,9.489,0,0,0,1.9-1.189Z" transform="translate(-282.727 -166.937)" fill="#fff"/>
    <path id="Tracé_10" data-name="Tracé 10" d="M705.8,426.508a.376.376,0,0,1-.127.151.226.226,0,0,1-.2.077.756.756,0,0,1-.229-.026q-.911-.328-1.72-.556t-1.619-.43q-.784-.177-1.62-.354-.836-.154-1.77-.354a.9.9,0,0,1-.406-.178.465.465,0,0,1-.127-.379,2.309,2.309,0,0,1,.076-.38c.068-.185.219-.582.456-1.189q.354-.886,1.087-2.607.734-1.695,2.026-4.579-.38-1.266-.861-3.037t-1.038-3.872q-.531-2.1-1.113-4.428-.583-2.354-1.189-4.732-.583-2.4-1.19-4.732-.581-2.353-1.138-4.479a2.328,2.328,0,0,1-.2-.658q-.026-.278-.026-.455a.453.453,0,0,1,.406-.455q1.973-.43,4.1-.886a28.676,28.676,0,0,0,4.023-1.215.771.771,0,0,1,.228-.025q.331,0,.354.253l3.088,17q.1-.3.38-1.088.3-.81.682-1.923.406-1.113.885-2.455t.987-2.733q.506-1.392.988-2.758.505-1.392.936-2.581t.734-2.1q.328-.911.505-1.366a.376.376,0,0,1,.38-.253.144.144,0,0,1,.1.025h.1a30.629,30.629,0,0,0,3.9,1.215q2,.455,3.972.886a.529.529,0,0,1,.481.557,2.847,2.847,0,0,1-.3,1.012l-10.425,23.557Z" transform="translate(-328.387 -167.558)" fill="#fff"/>
    <path id="Tracé_11" data-name="Tracé 11" d="M395.453,171.743l-19.626-9.37a12.643,12.643,0,0,0-9.586,0l-19.626,9.37a9.219,9.219,0,0,0-4.793,7.6v22.57a10.11,10.11,0,0,0,4.618,7.935L366.416,221.2a10.4,10.4,0,0,0,9.236,0l19.976-11.349a10.11,10.11,0,0,0,4.618-7.935v-22.57A9.219,9.219,0,0,0,395.453,171.743Zm.87,5.8-23.962,13.2v27.765a1.328,1.328,0,1,1-2.656,0V190.845l-24.154-13.5a1.328,1.328,0,1,1,1.292-2.32l24.1,13.467,24.1-13.275a1.328,1.328,0,1,1,1.284,2.324Z" transform="translate(-119.821 -34.458)" fill="url(#linear-gradient)"/>
    <path id="Tracé_12" data-name="Tracé 12" d="M445.119,110.8a12.645,12.645,0,0,1,6.779,6.778l7.3,20.636a9.219,9.219,0,0,1-1.984,8.763L441.15,163.034a9.86,9.86,0,0,1-5.411,2.484V144.885a9.614,9.614,0,0,0-.356-2.5l-1.458-3.309a11.634,11.634,0,0,0-3.783-3.8c4.421,1.258,25.467,7.242,25.575,7.242a1.328,1.328,0,0,0,.364-2.6l-25.843-7.371-7.282-26.016a1.328,1.328,0,0,0-2.556.721l7.21,25.76-.683.689-3.457-1.65-5.284-2.522-8.38-4-5.349-1.189-.044,0c-.181-.006-.362-.013-.545-.013a14.1,14.1,0,0,0-5.937,1.2l-.529.253a9.369,9.369,0,0,1,2.255-4.229l16.061-16.061a9.243,9.243,0,0,1,6.286-2.379,7.461,7.461,0,0,1,2.477.395Z" transform="translate(-152.657)" fill="url(#linear-gradient-2)"/>
    <path id="Tracé_13" data-name="Tracé 13" d="M430.933,146.382a1.832,1.832,0,0,0-.786-.462,2.719,2.719,0,0,0-1.739.153,7.988,7.988,0,0,0-3.3,2.825l.475.19a6.892,6.892,0,0,1,2.755-2.282,1.842,1.842,0,0,1,2.482.665h0a6.279,6.279,0,0,1,.749,2.416,6.453,6.453,0,0,1-.045,1.573l-5.942-2.374-.475-.19-2.356-.941c.179-.407.361-.776.536-1.1a12.046,12.046,0,0,1,3.823-4.425,3.1,3.1,0,0,1,2.589-.591c.74.266,1.195,1.056,1.313,2.286A10.058,10.058,0,0,1,430.933,146.382Z" transform="translate(-167.632 -22.825)" fill="#fff"/>
    <path id="Tracé_14" data-name="Tracé 14" d="M445.967,147.886a11.051,11.051,0,0,0,.729-1.093c.111-.191.122-.417.023-.507s-.269-.008-.381.182a8.353,8.353,0,0,1-2.52,2.761q-.031.2-.066.4.067.128.128.257a8.63,8.63,0,0,0,1.762-1.6c-.37,2.144.492,4.231,1.822,3.719C448,150.461,447.215,147.883,445.967,147.886Z" transform="translate(-180.038 -25.49)" fill="#fff"/>
    <path id="Tracé_15" data-name="Tracé 15" d="M493.882,211.822a2.463,2.463,0,0,1,.9.354,1.426,1.426,0,0,1,.655,1.163c.029.768-.453,2.441-4.016,5.018a.917.917,0,0,1-.28.134v-.452c3.092-2.283,3.519-3.744,3.492-4.42-.032-.832-.776-1.359-1.939-1.374h0a13.672,13.672,0,0,0-1.549.057l0,5.737v1.86a21.494,21.494,0,0,0,5.843-3.031,8.654,8.654,0,0,0,3.221-3.875,1.478,1.478,0,0,0-.559-1.848,4.734,4.734,0,0,0-3.23-.1A18.392,18.392,0,0,0,493.882,211.822Z" transform="translate(-208.035 -63.64)" fill="#fff"/>
    <path id="Tracé_16" data-name="Tracé 16" d="M494.737,205.964a9.843,9.843,0,0,0-.9.819c-.343-.464-1.6-.548-2.892-.373v1.4a10.526,10.526,0,0,0,2.584-.685,5.118,5.118,0,0,0-.983,1.643c.118,0,.236,0,.356,0,.144-.06.286-.117.428-.173a5.776,5.776,0,0,1,1.948-2.5c.164-.133.176-.268.027-.3A.785.785,0,0,0,494.737,205.964Z" transform="translate(-207.918 -60.657)" fill="#fff"/>
    <path id="Tracé_17" data-name="Tracé 17" d="M487.529,140.422a1.79,1.79,0,0,1,.549-.7,9.823,9.823,0,0,0-2.176-.368c-1.2-.043-2.028.3-2.38.978a3.026,3.026,0,0,0,.241,2.581,11.76,11.76,0,0,0,3.791,4.267,15.1,15.1,0,0,0,6.714,2.7c2.683-.212,3.68-1.379,4.044-2.324a4.888,4.888,0,0,0-.684-4.157,8.535,8.535,0,0,0-2.545-2.663,6.858,6.858,0,0,0-3.531-1.187,6.129,6.129,0,0,0-2.433.415h0a1.8,1.8,0,0,0-.962,2.317c.225.915,1.1,2.789,4.388,5.055.178.123.258.3.176.4a.208.208,0,0,1-.173.06.585.585,0,0,1-.3-.108c-3.583-2.467-4.54-4.547-4.793-5.567A2.658,2.658,0,0,1,487.529,140.422Z" transform="translate(-203.418 -21.414)" fill="#fff"/>
    <path id="Tracé_18" data-name="Tracé 18" d="M490.846,131.846a10.954,10.954,0,0,0-.965-.845c-.171-.132-.389-.171-.489-.088s-.042.259.127.392a8.158,8.158,0,0,1,2.349,2.793c.126.037.253.075.383.116.088-.032.176-.063.265-.091a8.448,8.448,0,0,0-1.32-1.91c2.027.633,4.157.066,3.832-1.287C493.6,130.209,491,130.638,490.846,131.846Z" transform="translate(-206.972 -16.231)" fill="#fff"/>
    <path id="Tracé_19" data-name="Tracé 19" d="M396.748,186.288a1.786,1.786,0,0,1,.094-.885,9.821,9.821,0,0,0-2.04.838c-1.046.6-1.566,1.323-1.5,2.089a3.026,3.026,0,0,0,1.569,2.063,11.757,11.757,0,0,0,5.474,1.617,15.1,15.1,0,0,0,7.128-1.255c2.165-1.6,2.394-3.116,2.2-4.109a4.88,4.88,0,0,0-2.778-3.167,8.524,8.524,0,0,0-3.568-.915,6.854,6.854,0,0,0-3.624.859,6.128,6.128,0,0,0-1.846,1.639h0a1.8,1.8,0,0,0,.409,2.475c.676.658,2.405,1.788,6.4,1.971.217.01.379.12.36.245a.21.21,0,0,1-.115.143.581.581,0,0,1-.311.066c-4.346-.2-6.258-1.459-7.011-2.191A2.651,2.651,0,0,1,396.748,186.288Z" transform="translate(-150.228 -46.942)" fill="#fff"/>
    <path id="Tracé_20" data-name="Tracé 20" d="M394.353,180.617a10.833,10.833,0,0,0-1.266-.207c-.214-.023-.421.06-.46.183s.1.243.315.265a8.158,8.158,0,0,1,3.47,1.128q.189-.053.385-.1.087-.111.178-.218a8.408,8.408,0,0,0-2.131-.923c2.055-.534,3.564-2.142,2.572-3.119C395.824,177.772,393.848,179.508,394.353,180.617Z" transform="translate(-149.831 -44.025)" fill="#fff"/>
    <path id="Tracé_21" data-name="Tracé 21" d="M365.537,239.464a1.829,1.829,0,0,1,.835-.367,10.047,10.047,0,0,0-1.784-1.387,2.422,2.422,0,0,0-2.622-.273,3.1,3.1,0,0,0-1.035,2.445,12.045,12.045,0,0,0,1.35,5.69,15.464,15.464,0,0,0,4.745,5.7c2.523,1.111,3.988.541,4.775-.135a5,5,0,0,0,1.4-4.082,8.72,8.72,0,0,0-1-3.637,7.017,7.017,0,0,0-2.608-2.784,6.277,6.277,0,0,0-2.4-.806h0c-.938-.128-1.7.494-1.991,1.623-.241.936-.365,3.048,1.506,6.69.1.2.086.4-.035.445a.215.215,0,0,1-.185-.03.6.6,0,0,1-.217-.243c-2.036-3.964-1.89-6.305-1.622-7.348A2.721,2.721,0,0,1,365.537,239.464Z" transform="translate(-131.102 -79.198)" fill="#fff"/>
    <path id="Tracé_22" data-name="Tracé 22" d="M374.284,232.787a11.084,11.084,0,0,0-.46-1.231c-.089-.2-.267-.343-.4-.316s-.164.214-.074.415a8.36,8.36,0,0,1,.764,3.659q.144.141.288.29c.1.014.19.029.284.047a8.621,8.621,0,0,0-.265-2.364c1.522,1.555,3.719,2.078,4.082.7C377.562,232.645,375.012,231.772,374.284,232.787Z" transform="translate(-138.418 -75.698)" fill="#fff"/>
    <path id="Tracé_23" data-name="Tracé 23" d="M442.721,241.727a2.454,2.454,0,0,0-.968-.009,18.436,18.436,0,0,1,2.089-1.635,4.74,4.74,0,0,1,3.055-1.059,1.479,1.479,0,0,1,1.182,1.526,8.665,8.665,0,0,1-1.625,4.77,22.356,22.356,0,0,1-5.577,5.879c-2.947,1.664-4.648,1.706-5.556,1.447a2.294,2.294,0,0,1-1.591-2.654,6.729,6.729,0,0,1,1.2-3.1A10.986,10.986,0,0,1,438,243.931a13.293,13.293,0,0,1,2.8-1.392h0c1.093-.4,1.976-.176,2.3.59.271.634.4,2.2-1.816,5.583-.12.184-.1.331.036.328a.442.442,0,0,0,.217-.083.918.918,0,0,0,.255-.256c2.407-3.679,2.259-5.415,1.957-6.122A1.425,1.425,0,0,0,442.721,241.727Z" transform="translate(-174.11 -80.284)" fill="#fff"/>
    <path id="Tracé_24" data-name="Tracé 24" d="M444.611,238.781a9.87,9.87,0,0,1,.547-1.087.784.784,0,0,1,.466-.37c.152-.021.189.109.083.292a5.769,5.769,0,0,0-.923,3.035c-.112.1-.225.207-.339.315-.111.041-.221.084-.331.128a5.109,5.109,0,0,1,.331-1.886c-1.785,1.677-4.348,2.789-4.758,1.856C440.8,239.736,443.773,238.245,444.611,238.781Z" transform="translate(-177.636 -79.293)" fill="#fff"/>
  </g>
</svg>
